<svg width="35" height="35" viewBox="0 0 35 35" fill="none" xmlns="http://www.w3.org/2000/svg">
<g clip-path="url(#clip0_400_4207)">
<path d="M34.7855 22.0998C34.7497 21.9927 34.6703 21.9214 34.5788 21.8768C32.2143 18.9204 29.7583 16.0576 27.2148 13.2929C27.2148 13.284 27.2228 13.2795 27.2267 13.2706C28.5541 10.2205 29.4761 6.98319 29.9927 3.63882C30.0603 3.20182 29.2973 3.1929 29.0946 3.28208C25.0291 5.09696 21.043 7.1348 17.1444 9.36885C15.9005 6.5016 14.8116 3.55855 13.8936 0.539696C13.7664 0.124994 12.8603 0.111616 12.7451 0.539696C11.8628 3.73692 11.1713 6.99657 10.6587 10.2919C8.71135 9.23953 6.69648 8.36553 4.61405 7.70558C4.34778 7.62085 3.58078 7.65207 3.73974 8.17379C4.40342 10.3588 5.38105 12.3966 6.62097 14.2338C4.53456 15.6875 2.45213 17.1367 0.36572 18.5904C0.0756097 18.7911 0.198807 19.1389 0.484943 19.2414C3.16349 20.218 5.71487 21.5513 8.10332 23.2235C8.12319 23.2369 8.151 23.2458 8.17485 23.2547C7.37605 26.1665 6.7243 29.123 6.23151 32.1195C6.19177 32.3514 6.52559 32.4896 6.66866 32.5208C6.91108 32.5699 7.1535 32.503 7.34029 32.3291C9.06902 30.7595 10.6944 29.0605 12.2165 27.2367C15.0779 29.5689 17.8637 32.0125 20.5622 34.5721C20.8523 34.8485 21.5835 34.902 21.6749 34.3625C22.2869 30.7104 22.7996 27.0405 23.2129 23.3528C26.9446 23.4152 30.6723 23.1655 34.3722 22.6081C34.5868 22.5769 34.8849 22.3852 34.7895 22.0998H34.7855ZM22.6048 22.5189C22.3902 22.5145 22.0087 22.6304 22.0087 22.9336C22.0087 22.9961 22.0286 23.0496 22.0564 23.0986C22.0564 23.112 22.0485 23.1209 22.0485 23.1343C21.6709 26.5322 21.206 29.9167 20.6575 33.2834C18.0267 30.8264 15.3243 28.4719 12.5464 26.2245C12.2682 26.0015 11.6601 26.1621 11.5489 26.443C11.5052 26.4697 11.4654 26.4965 11.4336 26.5366C10.2533 27.9725 9.00544 29.3281 7.69398 30.6123C8.16293 28.0572 8.74315 25.5333 9.43862 23.0451C9.54194 22.675 9.12466 22.4833 8.76302 22.5145C6.55739 20.9939 4.21266 19.7409 1.76858 18.7866C3.77153 17.3909 5.77051 15.9996 7.77346 14.6039C7.99999 14.4478 7.98012 14.1758 7.77346 14.0153C7.76552 14.0064 7.74962 14.0064 7.7377 13.9975C7.72577 13.9484 7.70988 13.8994 7.67411 13.8503C6.63289 12.3119 5.79436 10.6174 5.17042 8.82037C6.99056 9.46695 8.76699 10.2651 10.4759 11.2283C10.6309 11.313 10.8137 11.3576 10.9925 11.3398C11.3144 11.3799 11.6999 11.2506 11.7476 10.934C12.1569 8.16933 12.7053 5.4314 13.3809 2.73361C14.2234 5.27979 15.1812 7.77246 16.2622 10.2072C16.4291 10.5817 17.1802 10.5639 17.3868 10.283C17.4067 10.2741 17.4266 10.2696 17.4465 10.2562C21.1026 8.13812 24.8462 6.21622 28.6574 4.47268C28.1448 7.37114 27.3022 10.1804 26.1617 12.847C26.1537 12.847 26.1458 12.847 26.1418 12.8515C25.9471 12.9362 25.7206 13.1948 25.9272 13.4178C28.4547 16.1512 30.8948 18.9873 33.2475 21.9169C29.7185 22.403 26.1617 22.6037 22.6048 22.5145V22.5189Z" fill="black" stroke="black" stroke-miterlimit="10"/>
</g>
<defs>
<clipPath id="clip0_400_4207">
<rect width="35" height="35" fill="white"/>
</clipPath>
</defs>
</svg>
