<svg width="320" height="68" viewBox="0 0 320 68" fill="none" xmlns="http://www.w3.org/2000/svg">
<path d="M318.964 26.3491V27.0907C318.718 29.6441 317.212 31.8585 315.027 33.1369L313.552 34.0004L315.028 34.8633C317.423 36.2638 319 38.7878 319 41.6509C319 44.2374 317.715 46.5441 315.703 47.9997L314.692 48.7311L315.626 49.5586C317.706 51.4005 319 54.0334 319 56.9528C319 62.4693 314.359 67 308.558 67C304.153 67 300.41 64.3803 298.87 60.7008L297.947 58.4969L297.025 60.7008C295.485 64.3803 291.741 67 287.336 67C282.931 67 279.187 64.3803 277.647 60.7008L276.724 58.4969L275.802 60.7008C274.262 64.3803 270.518 67 266.113 67C261.708 67 257.964 64.3803 256.424 60.7008L255.502 58.4969L254.579 60.7008C253.039 64.3803 249.296 67 244.89 67C240.485 67 236.742 64.3803 235.202 60.7008L234.279 58.4969L233.357 60.7008C231.817 64.3803 228.073 67 223.668 67C219.263 67 215.519 64.3803 213.979 60.7008L213.057 58.4969L212.134 60.7008C210.594 64.3803 206.85 67 202.445 67C198.04 67 194.296 64.3803 192.756 60.7008L191.834 58.4969L190.911 60.7008C189.371 64.3803 185.628 67 181.223 67C176.818 67 173.074 64.3803 171.534 60.7008L170.611 58.4969L169.689 60.7008C168.149 64.3803 164.405 67 160 67C155.595 67 151.851 64.3803 150.311 60.7008L149.389 58.4969L148.466 60.7008C146.926 64.3803 143.182 67 138.777 67C134.372 67 130.629 64.3803 129.089 60.7008L128.166 58.4969L127.244 60.7008C125.704 64.3803 121.96 67 117.555 67C113.15 67 109.406 64.3803 107.866 60.7008L106.943 58.4969L106.021 60.7008C104.481 64.3803 100.737 67 96.3322 67C91.9271 67 88.1834 64.3803 86.6433 60.7008L85.7208 58.4969L84.7984 60.7008C83.2583 64.3803 79.5146 67 75.1095 67C70.7045 67 66.9608 64.3803 65.4207 60.7008L64.4982 58.4969L63.5758 60.7008C62.0357 64.3803 58.2919 67 53.8869 67C49.4819 67 45.7381 64.3803 44.1981 60.7008L43.2756 58.4969L42.3531 60.7008C40.8131 64.3803 37.0693 67 32.6643 67C28.2593 67 24.5155 64.3803 22.9754 60.7008L22.053 58.4969L21.1305 60.7008C19.5905 64.3802 15.8443 67 11.4417 67C5.64119 67 1 62.4693 1 56.9528C1 54.033 2.29231 51.4004 4.37377 49.5589L5.30847 48.732L4.29767 48C2.287 46.544 1 44.2369 1 41.6509C1 38.7883 2.5791 36.2638 4.97272 34.8631L6.44828 33.9996L4.97236 33.1367C2.57692 31.7362 1 29.2121 1 26.3491C1 23.7631 2.28699 21.456 4.29767 20L5.3079 19.2684L4.37418 18.4414C2.2945 16.5995 1 13.9666 1 11.0472C1 5.53074 5.64119 1 11.4417 1C15.8444 1 19.5903 3.61989 21.1278 7.29873L22.0497 9.50479L22.9729 7.29923C24.5129 3.61984 28.2591 1 32.6617 1C37.0645 1 40.8104 3.61989 42.3478 7.29873L43.2698 9.50479L44.193 7.29923C45.733 3.61984 49.4792 1 53.8818 1C58.2857 1 62.028 3.62041 63.5376 7.29328L64.4542 9.5232L65.385 7.29923C66.9251 3.61972 70.6688 1 75.0739 1C79.4789 1 83.2226 3.61972 84.7627 7.29923L85.6852 9.50314L86.6076 7.29923C88.1477 3.61972 91.8915 1 96.2965 1C100.702 1 104.445 3.61972 105.985 7.29923L106.908 9.50313L107.83 7.29923C109.37 3.61972 113.114 1 117.519 1C121.924 1 125.668 3.61972 127.208 7.29923L128.13 9.50313L129.053 7.29923C130.593 3.61972 134.337 1 138.742 1C143.147 1 146.891 3.61972 148.431 7.29923L149.353 9.50314L150.275 7.29923C151.816 3.61973 155.559 1 159.964 1C164.369 1 168.113 3.61972 169.653 7.29923L170.576 9.50313L171.498 7.29923C173.038 3.61972 176.782 1 181.187 1C185.592 1 189.336 3.61972 190.876 7.29923L191.798 9.50314L192.721 7.29923C194.261 3.61972 198.005 1 202.41 1C206.815 1 210.558 3.61973 212.098 7.29923L213.021 9.50314L213.943 7.29923C215.483 3.61972 219.227 1 223.632 1C228.037 1 231.781 3.61973 233.321 7.29923L234.244 9.50314L235.166 7.29923C236.706 3.61972 240.45 1 244.855 1C249.26 1 253.004 3.61972 254.544 7.29923L255.466 9.50313L256.389 7.29923C257.929 3.61972 261.672 1 266.077 1C270.482 1 274.226 3.61973 275.766 7.29923L276.689 9.50314L277.611 7.29923C279.151 3.61972 282.895 1 287.3 1C291.705 1 295.449 3.61973 296.989 7.29923L297.911 9.50314L298.834 7.29923C300.374 3.61984 304.12 1 308.523 1C314.323 1 318.964 5.53074 318.964 11.0472C318.964 13.967 317.672 16.5996 315.591 18.4411L314.656 19.268L315.667 20C317.677 21.456 318.964 23.7632 318.964 26.3491Z" fill="white" stroke="black" stroke-width="2"/>
</svg>
