<svg width="103" height="48" viewBox="0 0 103 48" fill="none" xmlns="http://www.w3.org/2000/svg">
<rect x="3" y="4" width="100" height="44" rx="22" fill="black"/>
<rect x="1" y="1" width="98" height="42" rx="21" fill="white" stroke="#202020" stroke-width="2"/>
<path d="M24.916 27.398C24.76 27.398 24.682 27.32 24.682 27.164V24.23H21.784C21.628 24.23 21.55 24.152 21.55 23.996V22.25C21.55 22.094 21.628 22.016 21.784 22.016H24.682V19.082C24.682 18.926 24.76 18.848 24.916 18.848H26.716C26.872 18.848 26.95 18.926 26.95 19.082V22.016H29.848C30.004 22.016 30.082 22.094 30.082 22.25V23.996C30.082 24.152 30.004 24.23 29.848 24.23H26.95V27.164C26.95 27.32 26.872 27.398 26.716 27.398H24.916ZM35.079 29C34.923 29 34.845 28.922 34.845 28.766V19.028L32.433 19.982C32.301 20.042 32.199 20 32.127 19.856L31.785 19.208C31.725 19.076 31.749 18.968 31.857 18.884L35.349 15.896C35.421 15.824 35.517 15.788 35.637 15.788H37.041C37.197 15.788 37.275 15.866 37.275 16.022V28.766C37.275 28.922 37.197 29 37.041 29H35.079ZM44.9554 29.252C43.8874 29.252 42.9694 28.982 42.2014 28.442C41.4454 27.89 40.8634 27.104 40.4554 26.084C40.0474 25.064 39.8434 23.834 39.8434 22.394C39.8434 20.954 40.0474 19.724 40.4554 18.704C40.8634 17.684 41.4454 16.904 42.2014 16.364C42.9694 15.812 43.8874 15.536 44.9554 15.536C46.0354 15.536 46.9534 15.812 47.7094 16.364C48.4774 16.904 49.0654 17.684 49.4734 18.704C49.8814 19.724 50.0854 20.954 50.0854 22.394C50.0854 23.834 49.8814 25.064 49.4734 26.084C49.0654 27.104 48.4774 27.89 47.7094 28.442C46.9534 28.982 46.0354 29.252 44.9554 29.252ZM44.9554 26.876C45.7714 26.876 46.4074 26.51 46.8634 25.778C47.3314 25.046 47.5654 23.918 47.5654 22.394C47.5654 20.858 47.3314 19.73 46.8634 19.01C46.4074 18.278 45.7714 17.912 44.9554 17.912C44.1514 17.912 43.5154 18.278 43.0474 19.01C42.5914 19.73 42.3634 20.858 42.3634 22.394C42.3634 23.918 42.5914 25.046 43.0474 25.778C43.5154 26.51 44.1514 26.876 44.9554 26.876ZM56.9964 29.252C55.9284 29.252 55.0104 28.982 54.2424 28.442C53.4864 27.89 52.9044 27.104 52.4964 26.084C52.0884 25.064 51.8844 23.834 51.8844 22.394C51.8844 20.954 52.0884 19.724 52.4964 18.704C52.9044 17.684 53.4864 16.904 54.2424 16.364C55.0104 15.812 55.9284 15.536 56.9964 15.536C58.0764 15.536 58.9944 15.812 59.7504 16.364C60.5184 16.904 61.1064 17.684 61.5144 18.704C61.9224 19.724 62.1264 20.954 62.1264 22.394C62.1264 23.834 61.9224 25.064 61.5144 26.084C61.1064 27.104 60.5184 27.89 59.7504 28.442C58.9944 28.982 58.0764 29.252 56.9964 29.252ZM56.9964 26.876C57.8124 26.876 58.4484 26.51 58.9044 25.778C59.3724 25.046 59.6064 23.918 59.6064 22.394C59.6064 20.858 59.3724 19.73 58.9044 19.01C58.4484 18.278 57.8124 17.912 56.9964 17.912C56.1924 17.912 55.5564 18.278 55.0884 19.01C54.6324 19.73 54.4044 20.858 54.4044 22.394C54.4044 23.918 54.6324 25.046 55.0884 25.778C55.5564 26.51 56.1924 26.876 56.9964 26.876ZM77.5694 13.97V22.268H75.1754V13.97H77.5694ZM66.3374 18.236C66.3374 19.424 67.2554 20.108 68.4794 20.108C69.7034 20.108 70.5854 19.424 70.5854 18.236C70.5854 17.066 69.7034 16.364 68.4794 16.364C67.2554 16.364 66.3374 17.066 66.3374 18.236ZM72.8894 18.236C72.8894 20.45 70.9994 22.034 68.4794 22.034C65.9414 22.034 64.0334 20.45 64.0334 18.236C64.0334 16.04 65.9414 14.456 68.4794 14.456C70.9994 14.456 72.8894 16.04 72.8894 18.236ZM68.8934 28.514H77.9834V30.368H66.5354V25.778H75.2114V24.77H66.5174V22.952H77.5694V27.47H68.8934V28.514Z" fill="#1B1B1B"/>
</svg>
