<svg width="320" height="56" viewBox="0 0 320 56" fill="none" xmlns="http://www.w3.org/2000/svg">
<rect x="2" y="2" width="316" height="52" rx="10" stroke="black" stroke-width="4"/>
<path d="M110.212 26.94C109.472 27.94 108.452 28.84 107.192 29.64C107.032 29.74 106.852 29.76 106.772 29.62L105.652 28.24C105.552 28.1 105.532 27.94 105.672 27.84C107.652 26.62 108.872 25.36 108.952 23.86H106.332C106.132 23.86 106.052 23.76 106.052 23.62V21.94C106.052 21.8 106.132 21.7 106.332 21.7H108.952V20.02C108.952 19.88 109.032 19.78 109.212 19.78H111.192C111.372 19.78 111.452 19.88 111.452 20.02V21.7H113.892C114.072 21.7 114.152 21.8 114.152 21.94V23.62C114.152 23.76 114.072 23.86 113.892 23.86H111.452C111.512 25.3 112.612 26.44 114.452 27.5C114.592 27.6 114.552 27.72 114.472 27.88L113.492 29.3C113.392 29.44 113.212 29.44 113.052 29.34C111.932 28.68 110.972 27.9 110.212 26.94ZM117.432 29.22H115.452C115.292 29.22 115.212 29.12 115.212 28.98V20.54C115.212 20.4 115.292 20.3 115.452 20.3H117.432C117.612 20.3 117.692 20.4 117.692 20.54V23.92H119.212V20.36C119.212 20.2 119.292 20.1 119.452 20.1H121.472C121.652 20.1 121.712 20.2 121.712 20.36V28.98C121.712 29.12 121.652 29.22 121.472 29.22H119.452C119.292 29.22 119.212 29.12 119.212 28.98V26.18H117.692V28.98C117.692 29.12 117.612 29.22 117.432 29.22ZM111.672 35.7H121.932C122.112 35.7 122.192 35.78 122.192 35.96V37.5C122.192 37.66 122.112 37.74 121.932 37.74H109.412C109.232 37.74 109.172 37.66 109.172 37.5V33.12C109.172 32.96 109.232 32.86 109.412 32.86H119.212V32.02H109.372C109.212 32.02 109.132 31.92 109.132 31.76V30.26C109.132 30.1 109.212 30 109.372 30H121.472C121.652 30 121.712 30.1 121.712 30.26V34.58C121.712 34.74 121.632 34.84 121.452 34.84H111.672V35.7ZM138.448 32.92H136.428C136.248 32.92 136.168 32.84 136.168 32.68V20.36C136.168 20.2 136.248 20.1 136.428 20.1H138.448C138.648 20.1 138.728 20.2 138.728 20.36V32.68C138.728 32.84 138.648 32.92 138.448 32.92ZM128.488 30.64H124.668C124.488 30.64 124.428 30.54 124.428 30.4V25.14C124.428 24.98 124.488 24.86 124.668 24.86H130.868V23.24H124.628C124.468 23.24 124.388 23.14 124.388 22.96V21.46C124.388 21.32 124.468 21.22 124.628 21.22H133.168C133.348 21.22 133.428 21.32 133.428 21.46V26.56C133.428 26.7 133.328 26.82 133.148 26.82H126.968V28.62H128.868C130.388 28.62 132.428 28.52 134.028 28.2C134.188 28.16 134.308 28.24 134.348 28.44L134.548 29.82C134.568 29.98 134.548 30.06 134.348 30.12C132.788 30.48 130.488 30.64 128.488 30.64ZM138.848 37.5H127.348C127.168 37.5 127.088 37.4 127.088 37.24V32.12C127.088 31.96 127.168 31.88 127.348 31.88H129.388C129.568 31.88 129.648 31.96 129.648 32.12V35.24H138.848C139.028 35.24 139.108 35.32 139.108 35.5V37.24C139.108 37.4 139.028 37.5 138.848 37.5ZM154.085 20.1H156.105C156.305 20.1 156.385 20.2 156.385 20.36V37.44C156.385 37.6 156.305 37.68 156.105 37.68H154.085C153.905 37.68 153.825 37.6 153.825 37.44V20.36C153.825 20.2 153.905 20.1 154.085 20.1ZM152.205 31.78C152.365 31.9 152.345 32.06 152.225 32.18L151.025 33.58C150.905 33.7 150.765 33.7 150.605 33.58C148.925 32.22 147.585 30.72 146.905 29.36C146.165 30.84 144.765 32.52 143.025 33.86C142.865 33.98 142.705 33.98 142.605 33.86L141.385 32.46C141.265 32.36 141.265 32.16 141.405 32.06C143.805 30.14 145.565 27.74 145.565 24.5V24.2H142.145C141.965 24.2 141.885 24.1 141.885 23.94V22.18C141.885 22.02 141.965 21.92 142.145 21.92H151.305C151.505 21.92 151.585 22.02 151.585 22.18V23.94C151.585 24.1 151.505 24.2 151.305 24.2H148.105V24.5C148.105 27.64 150.045 30.04 152.205 31.78ZM177.575 24.88H180.115C180.315 24.88 180.395 24.98 180.395 25.16V26.88C180.395 27.06 180.315 27.14 180.115 27.14H177.575V32.68C177.575 32.84 177.495 32.92 177.295 32.92H175.255C175.095 32.92 175.015 32.84 175.015 32.68V20.36C175.015 20.2 175.095 20.1 175.255 20.1H177.295C177.495 20.1 177.575 20.2 177.575 20.36V24.88ZM172.835 21.58V29.26C172.835 29.42 172.775 29.52 172.595 29.52H164.115C163.915 29.52 163.835 29.42 163.835 29.26V21.58C163.835 21.4 163.915 21.32 164.115 21.32H172.595C172.775 21.32 172.835 21.4 172.835 21.58ZM166.375 27.36H170.335V23.48H166.375V27.36ZM168.975 35.24H177.975C178.155 35.24 178.235 35.32 178.235 35.5V37.24C178.235 37.4 178.155 37.5 177.975 37.5H166.675C166.495 37.5 166.415 37.4 166.415 37.24V31.44C166.415 31.3 166.495 31.2 166.675 31.2H168.715C168.895 31.2 168.975 31.3 168.975 31.44V35.24ZM194.892 26.36H183.552C183.372 26.36 183.292 26.26 183.292 26.12V20.68C183.292 20.52 183.372 20.42 183.572 20.42H194.712C194.872 20.42 194.952 20.52 194.952 20.68V22.26C194.952 22.4 194.872 22.5 194.712 22.5H185.832V24.3H194.892C195.072 24.3 195.152 24.4 195.152 24.56V26.12C195.152 26.26 195.072 26.36 194.892 26.36ZM197.372 29.38H180.972C180.812 29.38 180.732 29.28 180.732 29.12V27.56C180.732 27.4 180.812 27.3 180.972 27.3H197.372C197.552 27.3 197.632 27.4 197.632 27.56V29.12C197.632 29.28 197.552 29.38 197.372 29.38ZM195.472 37.86H183.392C183.232 37.86 183.152 37.76 183.152 37.62V33.36C183.152 33.22 183.232 33.1 183.392 33.1H192.692V32.34H183.352C183.192 32.34 183.112 32.24 183.112 32.06V30.6C183.112 30.46 183.192 30.36 183.352 30.36H194.952C195.132 30.36 195.212 30.46 195.212 30.6V34.8C195.212 34.96 195.112 35.06 194.932 35.06H185.672V35.84H195.472C195.652 35.84 195.752 35.94 195.752 36.12V37.62C195.752 37.76 195.652 37.86 195.472 37.86ZM213.488 37.68H211.448C211.268 37.68 211.188 37.6 211.188 37.44V20.36C211.188 20.2 211.268 20.1 211.448 20.1H213.488C213.688 20.1 213.768 20.2 213.768 20.36V37.44C213.768 37.6 213.688 37.68 213.488 37.68ZM200.708 33.9C200.528 33.98 200.428 33.96 200.328 33.82L199.388 32.16C199.288 32 199.328 31.88 199.488 31.8C203.808 29.7 205.588 27.66 205.588 24.64V24.24H199.988C199.828 24.24 199.748 24.16 199.748 24V22.24C199.748 22.08 199.828 21.98 199.988 21.98H207.908C208.108 21.98 208.168 22.08 208.168 22.24V24.64C208.168 28.5 205.768 31.4 200.708 33.9Z" fill="#1B1B1B"/>
</svg>
