<svg width="103" height="48" viewBox="0 0 103 48" fill="none" xmlns="http://www.w3.org/2000/svg">
<rect x="3" y="4" width="100" height="44" rx="22" fill="black"/>
<rect x="1" y="1" width="98" height="42" rx="21" fill="white" stroke="#202020" stroke-width="2"/>
<path d="M29.7402 27.398C29.5842 27.398 29.5062 27.32 29.5062 27.164V24.23H26.6082C26.4522 24.23 26.3742 24.152 26.3742 23.996V22.25C26.3742 22.094 26.4522 22.016 26.6082 22.016H29.5062V19.082C29.5062 18.926 29.5842 18.848 29.7402 18.848H31.5402C31.6962 18.848 31.7742 18.926 31.7742 19.082V22.016H34.6722C34.8282 22.016 34.9062 22.094 34.9062 22.25V23.996C34.9062 24.152 34.8282 24.23 34.6722 24.23H31.7742V27.164C31.7742 27.32 31.6962 27.398 31.5402 27.398H29.7402ZM41.7392 29.252C40.5512 29.252 39.5312 28.94 38.6792 28.316C37.8392 27.68 37.2512 26.81 36.9152 25.706C36.8552 25.55 36.9092 25.454 37.0772 25.418L38.8412 24.986C38.9852 24.95 39.0812 25.004 39.1292 25.148C39.5612 26.3 40.3892 26.876 41.6132 26.876C42.3212 26.876 42.8852 26.684 43.3052 26.3C43.7252 25.916 43.9352 25.394 43.9352 24.734C43.9352 24.05 43.7252 23.51 43.3052 23.114C42.8852 22.706 42.3152 22.502 41.5952 22.502C41.1512 22.502 40.7192 22.58 40.2992 22.736C39.8912 22.88 39.4412 23.138 38.9492 23.51C38.8412 23.582 38.7332 23.588 38.6252 23.528L37.5812 23.042C37.4492 22.982 37.3952 22.886 37.4192 22.754L38.0312 16.004C38.0432 15.86 38.1212 15.788 38.2652 15.788H45.5012C45.6572 15.788 45.7352 15.866 45.7352 16.022V17.84C45.7352 17.996 45.6572 18.074 45.5012 18.074H39.8672L39.5612 21.332C40.3292 20.708 41.2472 20.396 42.3152 20.396C43.1312 20.396 43.8452 20.582 44.4572 20.954C45.0812 21.314 45.5672 21.818 45.9152 22.466C46.2632 23.114 46.4372 23.876 46.4372 24.752C46.4372 25.64 46.2392 26.426 45.8432 27.11C45.4472 27.782 44.8952 28.31 44.1872 28.694C43.4792 29.066 42.6632 29.252 41.7392 29.252ZM53.1722 29.252C52.1042 29.252 51.1862 28.982 50.4182 28.442C49.6622 27.89 49.0802 27.104 48.6722 26.084C48.2642 25.064 48.0602 23.834 48.0602 22.394C48.0602 20.954 48.2642 19.724 48.6722 18.704C49.0802 17.684 49.6622 16.904 50.4182 16.364C51.1862 15.812 52.1042 15.536 53.1722 15.536C54.2522 15.536 55.1702 15.812 55.9262 16.364C56.6942 16.904 57.2822 17.684 57.6902 18.704C58.0982 19.724 58.3022 20.954 58.3022 22.394C58.3022 23.834 58.0982 25.064 57.6902 26.084C57.2822 27.104 56.6942 27.89 55.9262 28.442C55.1702 28.982 54.2522 29.252 53.1722 29.252ZM53.1722 26.876C53.9882 26.876 54.6242 26.51 55.0802 25.778C55.5482 25.046 55.7822 23.918 55.7822 22.394C55.7822 20.858 55.5482 19.73 55.0802 19.01C54.6242 18.278 53.9882 17.912 53.1722 17.912C52.3682 17.912 51.7322 18.278 51.2642 19.01C50.8082 19.73 50.5802 20.858 50.5802 22.394C50.5802 23.918 50.8082 25.046 51.2642 25.778C51.7322 26.51 52.3682 26.876 53.1722 26.876ZM73.7452 13.97V22.268H71.3512V13.97H73.7452ZM62.5132 18.236C62.5132 19.424 63.4312 20.108 64.6552 20.108C65.8792 20.108 66.7612 19.424 66.7612 18.236C66.7612 17.066 65.8792 16.364 64.6552 16.364C63.4312 16.364 62.5132 17.066 62.5132 18.236ZM69.0652 18.236C69.0652 20.45 67.1752 22.034 64.6552 22.034C62.1172 22.034 60.2092 20.45 60.2092 18.236C60.2092 16.04 62.1172 14.456 64.6552 14.456C67.1752 14.456 69.0652 16.04 69.0652 18.236ZM65.0692 28.514H74.1592V30.368H62.7112V25.778H71.3872V24.77H62.6932V22.952H73.7452V27.47H65.0692V28.514Z" fill="#1B1B1B"/>
</svg>
