<svg width="35" height="35" viewBox="0 0 35 35" fill="none" xmlns="http://www.w3.org/2000/svg">
<path d="M34.6592 13.9178C33.2086 6.80452 27.2674 1.50985 20.512 0.26547C19.6279 0.103049 18.7291 0.0263149 17.8327 0.000736717C17.5678 -0.00693673 17.1288 0.0442196 16.7891 0.206641C16.355 0.0621243 15.8057 0.0749133 15.4954 0.109444C8.74619 0.857605 2.45187 5.93359 0.585528 12.8333C-1.23054 19.545 1.28571 27.1954 6.6395 31.38C12.4678 35.9368 21.2453 36.213 27.3655 32.0872C33.0185 28.2761 36.0657 20.8175 34.6592 13.9178ZM27.0724 29.3478C24.8554 31.5335 22.0031 32.8648 18.9988 33.2267C17.5776 33.3981 16.1539 33.3252 14.68 33.0298C13.2539 32.7433 11.8277 32.1653 10.5488 31.4017C5.30535 28.2697 2.44084 21.5606 3.15083 15.3911C3.86451 9.18841 8.49849 3.73003 14.2594 2.09687C14.913 1.91142 15.585 1.79376 16.3097 1.71319C16.4936 1.69273 16.7389 1.62623 16.9535 1.51624C17.2735 1.62367 17.6328 1.6582 17.8327 1.6646C19.1092 1.7004 20.5304 1.99072 21.8719 2.49077C23.2147 2.99082 24.5034 3.72364 25.6488 4.60736C28.089 6.49119 30.0093 9.04645 31.0639 12.025C33.146 17.9093 31.4231 25.0596 27.0737 29.3478H27.0724Z" fill="#1B1B1B"/>
</svg>
