<svg width="254" height="44" viewBox="0 0 254 44" fill="none" xmlns="http://www.w3.org/2000/svg">
<path d="M32.4174 19.504C31.2334 21.104 29.6014 22.544 27.5854 23.824C27.3294 23.984 27.0414 24.016 26.9134 23.792L25.1214 21.584C24.9614 21.36 24.9294 21.104 25.1534 20.944C28.3214 18.992 30.2734 16.976 30.4014 14.576H26.2094C25.8894 14.576 25.7614 14.416 25.7614 14.192V11.504C25.7614 11.28 25.8894 11.12 26.2094 11.12H30.4014V8.432C30.4014 8.208 30.5294 8.048 30.8174 8.048H33.9854C34.2734 8.048 34.4014 8.208 34.4014 8.432V11.12H38.3054C38.5934 11.12 38.7214 11.28 38.7214 11.504V14.192C38.7214 14.416 38.5934 14.576 38.3054 14.576H34.4014C34.4974 16.88 36.2574 18.704 39.2014 20.4C39.4254 20.56 39.3614 20.752 39.2334 21.008L37.6654 23.28C37.5054 23.504 37.2174 23.504 36.9614 23.344C35.1694 22.288 33.6334 21.04 32.4174 19.504ZM43.9694 23.152H40.8014C40.5454 23.152 40.4174 22.992 40.4174 22.768V9.264C40.4174 9.04 40.5454 8.88 40.8014 8.88H43.9694C44.2574 8.88 44.3854 9.04 44.3854 9.264V14.672H46.8174V8.976C46.8174 8.72 46.9454 8.56 47.2014 8.56H50.4334C50.7214 8.56 50.8174 8.72 50.8174 8.976V22.768C50.8174 22.992 50.7214 23.152 50.4334 23.152H47.2014C46.9454 23.152 46.8174 22.992 46.8174 22.768V18.288H44.3854V22.768C44.3854 22.992 44.2574 23.152 43.9694 23.152ZM34.7534 33.52H51.1694C51.4574 33.52 51.5854 33.648 51.5854 33.936V36.4C51.5854 36.656 51.4574 36.784 51.1694 36.784H31.1374C30.8494 36.784 30.7534 36.656 30.7534 36.4V29.392C30.7534 29.136 30.8494 28.976 31.1374 28.976H46.8174V27.632H31.0734C30.8174 27.632 30.6894 27.472 30.6894 27.216V24.816C30.6894 24.56 30.8174 24.4 31.0734 24.4H50.4334C50.7214 24.4 50.8174 24.56 50.8174 24.816V31.728C50.8174 31.984 50.6894 32.144 50.4014 32.144H34.7534V33.52ZM77.5954 29.072H74.3634C74.0754 29.072 73.9474 28.944 73.9474 28.688V8.976C73.9474 8.72 74.0754 8.56 74.3634 8.56H77.5954C77.9154 8.56 78.0434 8.72 78.0434 8.976V28.688C78.0434 28.944 77.9154 29.072 77.5954 29.072ZM61.6594 25.424H55.5474C55.2594 25.424 55.1634 25.264 55.1634 25.04V16.624C55.1634 16.368 55.2594 16.176 55.5474 16.176H65.4674V13.584H55.4834C55.2274 13.584 55.0994 13.424 55.0994 13.136V10.736C55.0994 10.512 55.2274 10.352 55.4834 10.352H69.1474C69.4354 10.352 69.5634 10.512 69.5634 10.736V18.896C69.5634 19.12 69.4034 19.312 69.1154 19.312H59.2274V22.192H62.2674C64.6994 22.192 67.9634 22.032 70.5234 21.52C70.7794 21.456 70.9714 21.584 71.0354 21.904L71.3554 24.112C71.3874 24.368 71.3554 24.496 71.0354 24.592C68.5394 25.168 64.8594 25.424 61.6594 25.424ZM78.2354 36.4H59.8354C59.5474 36.4 59.4194 36.24 59.4194 35.984V27.792C59.4194 27.536 59.5474 27.408 59.8354 27.408H63.0994C63.3874 27.408 63.5154 27.536 63.5154 27.792V32.784H78.2354C78.5234 32.784 78.6514 32.912 78.6514 33.2V35.984C78.6514 36.24 78.5234 36.4 78.2354 36.4ZM102.613 8.56H105.845C106.165 8.56 106.293 8.72 106.293 8.976V36.304C106.293 36.56 106.165 36.688 105.845 36.688H102.613C102.325 36.688 102.197 36.56 102.197 36.304V8.976C102.197 8.72 102.325 8.56 102.613 8.56ZM99.6054 27.248C99.8614 27.44 99.8294 27.696 99.6374 27.888L97.7174 30.128C97.5254 30.32 97.3014 30.32 97.0454 30.128C94.3574 27.952 92.2134 25.552 91.1254 23.376C89.9414 25.744 87.7014 28.432 84.9174 30.576C84.6614 30.768 84.4054 30.768 84.2454 30.576L82.2934 28.336C82.1014 28.176 82.1014 27.856 82.3254 27.696C86.1654 24.624 88.9814 20.784 88.9814 15.6V15.12H83.5094C83.2214 15.12 83.0934 14.96 83.0934 14.704V11.888C83.0934 11.632 83.2214 11.472 83.5094 11.472H98.1654C98.4854 11.472 98.6134 11.632 98.6134 11.888V14.704C98.6134 14.96 98.4854 15.12 98.1654 15.12H93.0454V15.6C93.0454 20.624 96.1494 24.464 99.6054 27.248ZM137.895 8.56H141.127C141.447 8.56 141.575 8.72 141.575 8.976V36.304C141.575 36.56 141.447 36.688 141.127 36.688H137.895C137.607 36.688 137.479 36.56 137.479 36.304V8.976C137.479 8.72 137.607 8.56 137.895 8.56ZM134.887 26.768C135.143 26.96 135.111 27.248 134.919 27.44L132.999 29.68C132.807 29.84 132.583 29.84 132.327 29.68C129.639 27.536 127.495 25.072 126.407 22.896C125.223 25.232 123.015 27.888 120.199 30.128C119.943 30.32 119.687 30.32 119.527 30.128L117.575 27.888C117.383 27.696 117.383 27.408 117.607 27.248C121.447 24.176 124.263 20.336 124.263 14.992V11.504C124.263 11.28 124.391 11.12 124.679 11.12H127.943C128.199 11.12 128.327 11.28 128.327 11.504V14.992C128.327 20.176 131.495 24.08 134.887 26.768ZM168.449 14.672H172.513C172.833 14.672 172.961 14.832 172.961 15.12V17.872C172.961 18.16 172.833 18.288 172.513 18.288H168.449V24.048C168.449 24.304 168.321 24.432 168.001 24.432H164.737C164.481 24.432 164.353 24.304 164.353 24.048V8.976C164.353 8.72 164.481 8.56 164.737 8.56H168.001C168.321 8.56 168.449 8.72 168.449 8.976V14.672ZM154.113 19.504C152.673 21.36 150.401 23.12 147.681 24.464C147.425 24.592 147.105 24.528 147.009 24.368L145.409 21.936C145.249 21.68 145.249 21.392 145.473 21.296C149.217 19.376 152.033 17.2 152.033 14.48V13.808H146.657C146.337 13.808 146.241 13.648 146.241 13.424V10.736C146.241 10.512 146.337 10.352 146.657 10.352H161.345C161.633 10.352 161.761 10.512 161.761 10.736V13.424C161.761 13.648 161.633 13.808 161.345 13.808H156.129V14.48C156.129 17.04 158.337 18.864 162.241 20.752C162.465 20.88 162.465 21.136 162.369 21.36L160.897 23.824C160.801 24.048 160.481 24.048 160.225 23.92C157.889 22.896 155.681 21.264 154.113 19.504ZM150.017 25.872H168.033C168.321 25.872 168.449 26 168.449 26.256V36.592C168.449 36.816 168.321 36.976 168.033 36.976H164.769C164.481 36.976 164.353 36.816 164.353 36.592V29.424H150.017C149.729 29.424 149.601 29.264 149.601 29.008V26.256C149.601 26 149.729 25.872 150.017 25.872ZM196.699 19.408H200.763C201.083 19.408 201.211 19.568 201.211 19.824V22.64C201.211 22.864 201.083 23.024 200.763 23.024H196.699V36.304C196.699 36.56 196.571 36.688 196.251 36.688H192.987C192.731 36.688 192.603 36.56 192.603 36.304V8.976C192.603 8.72 192.731 8.56 192.987 8.56H196.251C196.571 8.56 196.699 8.72 196.699 8.976V19.408ZM184.187 13.104H190.171C190.459 13.104 190.587 13.264 190.587 13.52V16.24C190.587 16.496 190.459 16.656 190.171 16.656H174.075C173.787 16.656 173.691 16.496 173.691 16.24V13.52C173.691 13.264 173.787 13.104 174.075 13.104H180.091V9.808C180.091 9.584 180.219 9.424 180.539 9.424H183.771C184.059 9.424 184.187 9.584 184.187 9.808V13.104ZM182.171 18.288C186.683 18.288 189.563 20.912 189.563 25.168C189.563 29.392 186.683 31.984 182.171 31.984C177.691 31.984 174.843 29.392 174.843 25.168C174.843 20.912 177.691 18.288 182.171 18.288ZM182.203 28.624C184.315 28.624 185.563 27.152 185.563 25.168C185.563 23.12 184.315 21.648 182.203 21.648C180.091 21.648 178.843 23.12 178.843 25.168C178.843 27.152 180.091 28.624 182.203 28.624ZM225.909 36.688H222.645C222.357 36.688 222.229 36.56 222.229 36.304V8.976C222.229 8.72 222.357 8.56 222.645 8.56H225.909C226.229 8.56 226.357 8.72 226.357 8.976V36.304C226.357 36.56 226.229 36.688 225.909 36.688ZM205.461 30.64C205.173 30.768 205.013 30.736 204.853 30.512L203.349 27.856C203.189 27.6 203.253 27.408 203.509 27.28C210.421 23.92 213.269 20.656 213.269 15.824V15.184H204.309C204.053 15.184 203.925 15.056 203.925 14.8V11.984C203.925 11.728 204.053 11.568 204.309 11.568H216.981C217.301 11.568 217.397 11.728 217.397 11.984V15.824C217.397 22 213.557 26.64 205.461 30.64Z" fill="#1B1B1B"/>
<path d="M242.6 44C242.2 44 242 43.7972 242 43.3915V38.9915C242 38.5858 242.2 38.383 242.6 38.383H247.908V5.61702H242.6C242.2 5.61702 242 5.41418 242 5.00851V0.608514C242 0.20284 242.2 0 242.6 0H253.4C253.8 0 254 0.20284 254 0.608514V43.3915C254 43.7972 253.8 44 253.4 44H242.6Z" fill="black"/>
<path d="M0.600001 44C0.200001 44 0 43.7972 0 43.3915V0.608514C0 0.20284 0.200001 0 0.600001 0H11.4C11.8 0 12 0.20284 12 0.608514V5.00851C12 5.41418 11.8 5.61702 11.4 5.61702H6.09231V38.383H11.4C11.8 38.383 12 38.5858 12 38.9915V43.3915C12 43.7972 11.8 44 11.4 44H0.600001Z" fill="black"/>
</svg>
