<svg width="320" height="56" viewBox="0 0 320 56" fill="none" xmlns="http://www.w3.org/2000/svg">
<rect width="320" height="56" rx="12" fill="#FEE500"/>
<path d="M119.845 26.68H122.665C122.785 26.68 122.865 26.76 122.865 26.9V27.92C122.865 28.06 122.785 28.12 122.665 28.12H119.845V37.36C119.845 37.5 119.805 37.58 119.645 37.58H118.485C118.365 37.58 118.285 37.5 118.285 37.36V20.42C118.285 20.3 118.365 20.22 118.485 20.22H119.645C119.805 20.22 119.845 20.3 119.845 20.42V26.68ZM106.985 21.94H115.165C115.325 21.94 115.385 22.02 115.385 22.14V24.16C115.385 28.46 112.205 31.9 107.105 34.42C106.985 34.48 106.885 34.48 106.825 34.36L106.285 33.36C106.205 33.24 106.245 33.14 106.365 33.08C109.325 31.66 111.525 29.92 112.725 27.9C111.545 28.04 110.225 28.16 109.045 28.16H106.585C106.425 28.16 106.385 28.08 106.385 27.96V26.94C106.385 26.82 106.425 26.74 106.585 26.74H108.805C110.305 26.74 112.045 26.64 113.405 26.44C113.665 25.72 113.785 24.96 113.785 24.16V23.36H106.985C106.865 23.36 106.785 23.28 106.785 23.18V22.14C106.785 22.02 106.865 21.94 106.985 21.94ZM137.501 26.68H140.321C140.441 26.68 140.521 26.76 140.521 26.9V27.92C140.521 28.06 140.441 28.12 140.321 28.12H137.501V37.36C137.501 37.5 137.461 37.58 137.301 37.58H136.141C136.021 37.58 135.941 37.5 135.941 37.36V20.42C135.941 20.3 136.021 20.22 136.141 20.22H137.301C137.461 20.22 137.501 20.3 137.501 20.42V26.68ZM124.641 21.94H132.821C132.981 21.94 133.041 22.02 133.041 22.14V24.16C133.041 28.46 129.861 31.9 124.761 34.42C124.641 34.48 124.541 34.48 124.481 34.36L123.941 33.36C123.861 33.24 123.901 33.14 124.021 33.08C126.981 31.66 129.181 29.92 130.381 27.9C129.201 28.04 127.881 28.16 126.701 28.16H124.241C124.081 28.16 124.041 28.08 124.041 27.96V26.94C124.041 26.82 124.081 26.74 124.241 26.74H126.461C127.961 26.74 129.701 26.64 131.061 26.44C131.321 25.72 131.441 24.96 131.441 24.16V23.36H124.641C124.521 23.36 124.441 23.28 124.441 23.18V22.14C124.441 22.02 124.521 21.94 124.641 21.94ZM150.237 34.32H157.557C157.677 34.32 157.737 34.4 157.737 34.54V35.56C157.737 35.7 157.677 35.76 157.557 35.76H141.357C141.237 35.76 141.157 35.7 141.157 35.56V34.54C141.157 34.4 141.237 34.32 141.357 34.32H148.657V30.52C145.697 30.28 143.337 28.76 143.337 25.98C143.337 22.96 146.117 21.42 149.437 21.42C152.757 21.42 155.537 22.96 155.537 25.98C155.537 28.76 153.197 30.28 150.237 30.5V34.32ZM144.917 25.98C144.917 28.06 146.917 29.12 149.437 29.12C151.977 29.12 153.957 28.06 153.957 25.98C153.957 23.92 151.977 22.84 149.437 22.84C146.917 22.84 144.917 23.92 144.917 25.98ZM172.347 34.32H179.667C179.787 34.32 179.847 34.4 179.847 34.54V35.56C179.847 35.7 179.787 35.76 179.667 35.76H163.467C163.347 35.76 163.267 35.7 163.267 35.56V34.54C163.267 34.4 163.347 34.32 163.467 34.32H170.767V30.94H166.047C165.907 30.94 165.847 30.86 165.847 30.74V25.8C165.847 25.68 165.907 25.6 166.047 25.6H175.687V23.02H166.007C165.867 23.02 165.807 22.94 165.807 22.8V21.84C165.807 21.72 165.867 21.64 166.007 21.64H177.067C177.207 21.64 177.267 21.72 177.267 21.84V26.7C177.267 26.84 177.187 26.92 177.047 26.92H167.427V29.56H177.447C177.587 29.56 177.667 29.64 177.667 29.78V30.74C177.667 30.86 177.587 30.94 177.447 30.94H172.347V34.32ZM193.283 23.32H183.603C183.463 23.32 183.403 23.26 183.403 23.12V22.1C183.403 21.98 183.463 21.9 183.603 21.9H194.643C194.783 21.9 194.863 21.98 194.863 22.1V23.88C194.863 26.46 194.543 29.48 194.023 31.6C194.003 31.74 193.923 31.82 193.763 31.78L192.703 31.62C192.563 31.6 192.523 31.46 192.543 31.38C193.003 29.34 193.343 26.34 193.303 24.14L193.283 23.32ZM181.123 34.22H197.323C197.443 34.22 197.503 34.3 197.503 34.42V35.44C197.503 35.56 197.443 35.64 197.323 35.64H181.123C181.003 35.64 180.923 35.56 180.923 35.44V34.42C180.923 34.3 181.003 34.22 181.123 34.22ZM213.239 33.08H212.099C211.959 33.08 211.879 33 211.879 32.88V20.42C211.879 20.3 211.959 20.22 212.099 20.22H213.239C213.399 20.22 213.459 20.3 213.459 20.42V32.88C213.459 33 213.399 33.08 213.239 33.08ZM204.099 29.74C201.299 29.74 199.439 27.96 199.439 25.36C199.439 22.78 201.299 20.96 204.099 20.96C206.899 20.96 208.779 22.78 208.779 25.36C208.779 27.96 206.899 29.74 204.099 29.74ZM204.099 28.38C206.039 28.38 207.239 27.14 207.239 25.36C207.239 23.56 206.039 22.32 204.099 22.32C202.159 22.32 200.979 23.56 200.979 25.36C200.979 27.14 202.159 28.38 204.099 28.38ZM213.719 37.38H202.679C202.519 37.38 202.479 37.3 202.479 37.18V31.66C202.479 31.54 202.519 31.46 202.679 31.46H203.839C203.959 31.46 204.039 31.54 204.039 31.66V35.96H213.719C213.879 35.96 213.939 36.04 213.939 36.18V37.18C213.939 37.3 213.879 37.38 213.719 37.38Z" fill="black"/>
<path fill-rule="evenodd" clip-rule="evenodd" d="M28.5001 17C22.1484 17 17 21.0765 17 26.1042C17 29.231 18.9913 31.9875 22.0236 33.627L20.7478 38.4035C20.635 38.8256 21.106 39.162 21.4677 38.9174L27.0604 35.1346C27.5324 35.1812 28.012 35.2085 28.5001 35.2085C34.8512 35.2085 40 31.1321 40 26.1042C40 21.0765 34.8512 17 28.5001 17Z" fill="black"/>
</svg>
