<svg width="254" height="44" viewBox="0 0 254 44" fill="none" xmlns="http://www.w3.org/2000/svg">
<path d="M28.5771 34C28.1931 34 28.0011 33.808 28.0011 33.424V11.088C28.0011 10.704 28.1931 10.512 28.5771 10.512H36.9931C40.3851 10.512 42.9558 11.248 44.7051 12.72C46.4545 14.192 47.3291 16.432 47.3291 19.44C47.3291 22.4267 46.4545 24.6667 44.7051 26.16C42.9558 27.632 40.3851 28.368 36.9931 28.368H35.1371V33.424C35.1371 33.808 34.9451 34 34.5611 34H28.5771ZM36.8651 16.272H35.1371V22.608H36.8651C37.7611 22.608 38.4971 22.384 39.0731 21.936C39.6705 21.488 39.9691 20.656 39.9691 19.44C39.9691 18.224 39.6705 17.392 39.0731 16.944C38.4971 16.496 37.7611 16.272 36.8651 16.272ZM51.1084 34C50.7244 34 50.5324 33.808 50.5324 33.424V11.088C50.5324 10.704 50.7244 10.512 51.1084 10.512H57.2524C57.6364 10.512 57.8284 10.704 57.8284 11.088V33.424C57.8284 33.808 57.6364 34 57.2524 34H51.1084ZM73.5226 34.448C71.0906 34.448 68.9573 33.936 67.1226 32.912C65.3093 31.8667 63.8906 30.4267 62.8666 28.592C61.864 26.7573 61.3626 24.6453 61.3626 22.256C61.3626 20.464 61.672 18.8213 62.2906 17.328C62.9093 15.8347 63.7626 14.544 64.8506 13.456C65.96 12.368 67.2506 11.536 68.7226 10.96C70.1946 10.3627 71.7946 10.064 73.5226 10.064C76.1893 10.064 78.3973 10.6507 80.1466 11.824C81.9173 12.976 83.24 14.64 84.1146 16.816C84.264 17.2 84.1466 17.4453 83.7626 17.552L77.6826 19.152C77.384 19.2373 77.1386 19.1413 76.9466 18.864C76.5413 18.2453 76.0506 17.808 75.4746 17.552C74.92 17.2747 74.2586 17.136 73.4906 17.136C72.1893 17.136 71.0906 17.5947 70.1946 18.512C69.32 19.408 68.8826 20.656 68.8826 22.256C68.8826 23.856 69.3306 25.1147 70.2266 26.032C71.1226 26.928 72.2213 27.376 73.5226 27.376C74.4186 27.376 75.2186 27.2053 75.9226 26.864C76.648 26.5013 77.192 25.84 77.5546 24.88C77.6826 24.5173 77.9173 24.3787 78.2586 24.464L84.2746 26.032C84.6586 26.1387 84.808 26.352 84.7226 26.672C84.2533 28.1653 83.4853 29.4987 82.4186 30.672C81.3733 31.8453 80.0933 32.7733 78.5786 33.456C77.064 34.1173 75.3786 34.448 73.5226 34.448ZM88.6709 34C88.2869 34 88.0949 33.808 88.0949 33.424V11.088C88.0949 10.704 88.2869 10.512 88.6709 10.512H94.8149C95.1989 10.512 95.3909 10.704 95.3909 11.088V18.896L101.567 10.864C101.759 10.6293 101.994 10.512 102.271 10.512H109.183C109.418 10.512 109.567 10.5867 109.631 10.736C109.716 10.864 109.674 11.024 109.503 11.216L102.591 19.312L110.271 33.328C110.506 33.776 110.378 34 109.887 34H102.879C102.602 34 102.378 33.8613 102.207 33.584L97.6629 25.072L95.3909 27.728V33.424C95.3909 33.808 95.1989 34 94.8149 34H88.6709ZM119.858 34C119.474 34 119.282 33.808 119.282 33.424V11.088C119.282 10.704 119.474 10.512 119.858 10.512H128.274C131.666 10.512 134.237 11.248 135.986 12.72C137.736 14.192 138.61 16.432 138.61 19.44C138.61 22.4267 137.736 24.6667 135.986 26.16C134.237 27.632 131.666 28.368 128.274 28.368H126.418V33.424C126.418 33.808 126.226 34 125.842 34H119.858ZM128.146 16.272H126.418V22.608H128.146C129.042 22.608 129.778 22.384 130.354 21.936C130.952 21.488 131.25 20.656 131.25 19.44C131.25 18.224 130.952 17.392 130.354 16.944C129.778 16.496 129.042 16.272 128.146 16.272ZM137.971 34C137.758 34 137.608 33.936 137.523 33.808C137.438 33.68 137.438 33.52 137.523 33.328L146.643 10.96C146.771 10.6613 146.995 10.512 147.315 10.512H152.179C152.499 10.512 152.723 10.6613 152.851 10.96L161.971 33.328C162.056 33.52 162.056 33.68 161.971 33.808C161.886 33.936 161.736 34 161.523 34H155.091C154.75 34 154.526 33.84 154.419 33.52L153.395 30.48H145.939L144.947 33.52C144.862 33.84 144.638 34 144.275 34H137.971ZM147.763 24.976H151.571L149.651 19.216L147.763 24.976ZM164.921 34C164.537 34 164.345 33.808 164.345 33.424V11.088C164.345 10.704 164.537 10.512 164.921 10.512H173.337C176.729 10.512 179.3 11.248 181.049 12.72C182.798 14.192 183.673 16.432 183.673 19.44C183.673 22.4267 182.798 24.6667 181.049 26.16C179.3 27.632 176.729 28.368 173.337 28.368H171.481V33.424C171.481 33.808 171.289 34 170.905 34H164.921ZM173.209 16.272H171.481V22.608H173.209C174.105 22.608 174.841 22.384 175.417 21.936C176.014 21.488 176.313 20.656 176.313 19.44C176.313 18.224 176.014 17.392 175.417 16.944C174.841 16.496 174.105 16.272 173.209 16.272ZM187.452 34C187.068 34 186.876 33.808 186.876 33.424V11.088C186.876 10.704 187.068 10.512 187.452 10.512H203.388C203.772 10.512 203.964 10.704 203.964 11.088V15.952C203.964 16.336 203.772 16.528 203.388 16.528H194.044V19.184H202.108C202.492 19.184 202.684 19.376 202.684 19.76V24.368C202.684 24.752 202.492 24.944 202.108 24.944H194.044V27.984H203.772C204.156 27.984 204.348 28.176 204.348 28.56V33.424C204.348 33.808 204.156 34 203.772 34H187.452ZM208.14 34C207.756 34 207.564 33.808 207.564 33.424V11.088C207.564 10.704 207.756 10.512 208.14 10.512H216.556C220.118 10.512 222.732 11.2373 224.396 12.688C226.06 14.1387 226.892 16.2933 226.892 19.152C226.892 22.3947 225.857 24.7093 223.788 26.096L227.308 33.328C227.414 33.52 227.425 33.68 227.34 33.808C227.254 33.936 227.094 34 226.86 34H220.14C219.82 34 219.596 33.8507 219.468 33.552L217.132 27.792C216.94 27.792 216.748 27.792 216.556 27.792H214.7V33.424C214.7 33.808 214.508 34 214.124 34H208.14ZM216.556 16.272H214.7V22.032H216.556C217.409 22.032 218.113 21.8293 218.668 21.424C219.244 20.9973 219.532 20.24 219.532 19.152C219.532 18.128 219.244 17.392 218.668 16.944C218.113 16.496 217.409 16.272 216.556 16.272Z" fill="#1B1B1B"/>
<path d="M242.6 44C242.2 44 242 43.7972 242 43.3915V38.9915C242 38.5858 242.2 38.383 242.6 38.383H247.908V5.61702H242.6C242.2 5.61702 242 5.41418 242 5.00851V0.608514C242 0.20284 242.2 0 242.6 0H253.4C253.8 0 254 0.20284 254 0.608514V43.3915C254 43.7972 253.8 44 253.4 44H242.6Z" fill="black"/>
<path d="M0.600001 44C0.200001 44 0 43.7972 0 43.3915V0.608514C0 0.20284 0.200001 0 0.600001 0H11.4C11.8 0 12 0.20284 12 0.608514V5.00851C12 5.41418 11.8 5.61702 11.4 5.61702H6.09231V38.383H11.4C11.8 38.383 12 38.5858 12 38.9915V43.3915C12 43.7972 11.8 44 11.4 44H0.600001Z" fill="black"/>
</svg>
