<svg width="103" height="48" viewBox="0 0 103 48" fill="none" xmlns="http://www.w3.org/2000/svg">
<rect x="3" y="4" width="100" height="44" rx="22" fill="black"/>
<rect x="1" y="1" width="98" height="42" rx="21" fill="white" stroke="#202020" stroke-width="2"/>
<path d="M29.7402 27.398C29.5842 27.398 29.5062 27.32 29.5062 27.164V24.23H26.6082C26.4522 24.23 26.3742 24.152 26.3742 23.996V22.25C26.3742 22.094 26.4522 22.016 26.6082 22.016H29.5062V19.082C29.5062 18.926 29.5842 18.848 29.7402 18.848H31.5402C31.6962 18.848 31.7742 18.926 31.7742 19.082V22.016H34.6722C34.8282 22.016 34.9062 22.094 34.9062 22.25V23.996C34.9062 24.152 34.8282 24.23 34.6722 24.23H31.7742V27.164C31.7742 27.32 31.6962 27.398 31.5402 27.398H29.7402ZM41.4692 29.252C40.2932 29.252 39.2912 28.94 38.4632 28.316C37.6472 27.692 37.0832 26.84 36.7712 25.76C36.7352 25.604 36.7952 25.508 36.9512 25.472L38.7692 24.986C38.9132 24.95 39.0092 25.004 39.0572 25.148C39.2492 25.664 39.5372 26.084 39.9212 26.408C40.3172 26.72 40.8332 26.876 41.4692 26.876C42.1652 26.876 42.7172 26.702 43.1252 26.354C43.5332 26.006 43.7372 25.544 43.7372 24.968C43.7372 24.392 43.5152 23.954 43.0712 23.654C42.6392 23.342 42.0572 23.186 41.3252 23.186H40.7672C40.6112 23.186 40.5332 23.108 40.5332 22.952V21.35C40.5332 21.194 40.6112 21.116 40.7672 21.116H41.3252C41.9372 21.116 42.4352 20.972 42.8192 20.684C43.2032 20.396 43.3952 20.024 43.3952 19.568C43.3952 19.088 43.2092 18.692 42.8372 18.38C42.4652 18.068 41.9912 17.912 41.4152 17.912C40.8512 17.912 40.3832 18.074 40.0112 18.398C39.6392 18.71 39.3572 19.124 39.1652 19.64C39.1172 19.784 39.0212 19.838 38.8772 19.802L37.0592 19.316C36.9032 19.28 36.8432 19.184 36.8792 19.028C37.1912 17.948 37.7492 17.096 38.5532 16.472C39.3692 15.848 40.3412 15.536 41.4692 15.536C42.3212 15.536 43.0832 15.692 43.7552 16.004C44.4272 16.316 44.9552 16.742 45.3392 17.282C45.7232 17.81 45.9152 18.422 45.9152 19.118C45.9152 19.766 45.7292 20.348 45.3572 20.864C44.9972 21.38 44.4932 21.788 43.8452 22.088C44.6012 22.34 45.1892 22.742 45.6092 23.294C46.0412 23.846 46.2572 24.518 46.2572 25.31C46.2572 26.09 46.0532 26.78 45.6452 27.38C45.2492 27.968 44.6912 28.43 43.9712 28.766C43.2512 29.09 42.4172 29.252 41.4692 29.252ZM53.1722 29.252C52.1042 29.252 51.1862 28.982 50.4182 28.442C49.6622 27.89 49.0802 27.104 48.6722 26.084C48.2642 25.064 48.0602 23.834 48.0602 22.394C48.0602 20.954 48.2642 19.724 48.6722 18.704C49.0802 17.684 49.6622 16.904 50.4182 16.364C51.1862 15.812 52.1042 15.536 53.1722 15.536C54.2522 15.536 55.1702 15.812 55.9262 16.364C56.6942 16.904 57.2822 17.684 57.6902 18.704C58.0982 19.724 58.3022 20.954 58.3022 22.394C58.3022 23.834 58.0982 25.064 57.6902 26.084C57.2822 27.104 56.6942 27.89 55.9262 28.442C55.1702 28.982 54.2522 29.252 53.1722 29.252ZM53.1722 26.876C53.9882 26.876 54.6242 26.51 55.0802 25.778C55.5482 25.046 55.7822 23.918 55.7822 22.394C55.7822 20.858 55.5482 19.73 55.0802 19.01C54.6242 18.278 53.9882 17.912 53.1722 17.912C52.3682 17.912 51.7322 18.278 51.2642 19.01C50.8082 19.73 50.5802 20.858 50.5802 22.394C50.5802 23.918 50.8082 25.046 51.2642 25.778C51.7322 26.51 52.3682 26.876 53.1722 26.876ZM73.7452 13.97V22.268H71.3512V13.97H73.7452ZM62.5132 18.236C62.5132 19.424 63.4312 20.108 64.6552 20.108C65.8792 20.108 66.7612 19.424 66.7612 18.236C66.7612 17.066 65.8792 16.364 64.6552 16.364C63.4312 16.364 62.5132 17.066 62.5132 18.236ZM69.0652 18.236C69.0652 20.45 67.1752 22.034 64.6552 22.034C62.1172 22.034 60.2092 20.45 60.2092 18.236C60.2092 16.04 62.1172 14.456 64.6552 14.456C67.1752 14.456 69.0652 16.04 69.0652 18.236ZM65.0692 28.514H74.1592V30.368H62.7112V25.778H71.3872V24.77H62.6932V22.952H73.7452V27.47H65.0692V28.514Z" fill="#1B1B1B"/>
</svg>
