<svg width="252" height="14" viewBox="0 0 252 14" fill="none" xmlns="http://www.w3.org/2000/svg">
<path d="M10.4912 4.216H12.2692C12.4092 4.216 12.4652 4.286 12.4652 4.412V5.616C12.4652 5.742 12.4092 5.798 12.2692 5.798H10.4912V9.676C10.4912 9.788 10.4352 9.844 10.2952 9.844H8.8672C8.7552 9.844 8.6992 9.788 8.6992 9.676V1.052C8.6992 0.94 8.7552 0.87 8.8672 0.87H10.2952C10.4352 0.87 10.4912 0.94 10.4912 1.052V4.216ZM6.8232 1.892V3.278C6.8232 5.714 4.8352 7.198 1.4052 8.262C1.2792 8.29 1.1812 8.276 1.1392 8.164L0.705195 7.016C0.649195 6.89 0.719195 6.792 0.831195 6.778C3.6032 5.868 5.0172 4.832 5.0172 3.39V3.278H1.3212C1.1952 3.278 1.1392 3.208 1.1392 3.096V1.892C1.1392 1.78 1.1952 1.724 1.3212 1.724H6.6412C6.7812 1.724 6.8232 1.78 6.8232 1.892ZM4.4712 11.468H10.7712C10.8972 11.468 10.9532 11.524 10.9532 11.65V12.868C10.9532 12.98 10.8972 13.05 10.7712 13.05H2.8612C2.7352 13.05 2.6792 12.98 2.6792 12.868V8.976C2.6792 8.864 2.7352 8.808 2.8612 8.808H4.2892C4.4152 8.808 4.4712 8.864 4.4712 8.976V11.468ZM21.6606 6.372H20.3446C20.2046 6.372 20.1626 6.302 20.1626 6.176V5.028C20.1626 4.902 20.2046 4.832 20.3446 4.832H21.6606V4.076H20.3446C20.2046 4.076 20.1626 4.006 20.1626 3.88V2.732C20.1626 2.606 20.2046 2.536 20.3446 2.536H21.6606V1.052C21.6606 0.94 21.7166 0.87 21.8426 0.87H23.2566C23.3966 0.87 23.4526 0.94 23.4526 1.052V9.606C23.4526 9.718 23.3966 9.788 23.2566 9.788H21.8426C21.7166 9.788 21.6606 9.718 21.6606 9.606V6.372ZM19.9806 6.106L20.1486 7.226C20.1626 7.296 20.1206 7.38 20.0226 7.394C18.6786 7.646 16.2566 7.786 14.6466 7.786H12.8686C12.7566 7.786 12.7006 7.716 12.7006 7.604V6.442C12.7006 6.33 12.7566 6.26 12.8686 6.26H14.0026V3.096H13.1486C13.0226 3.096 12.9666 3.04 12.9666 2.928V1.752C12.9666 1.654 13.0226 1.584 13.1486 1.584H19.5466C19.6866 1.584 19.7426 1.654 19.7426 1.752V2.928C19.7426 3.04 19.6866 3.096 19.5466 3.096H18.8606V6.05C19.1826 6.022 19.4906 5.98 19.7706 5.938C19.8826 5.924 19.9526 5.952 19.9806 6.106ZM17.1526 6.176V3.096H15.7246V6.246C16.2006 6.232 16.6906 6.204 17.1526 6.176ZM17.0966 11.468H23.5366C23.6626 11.468 23.7186 11.524 23.7186 11.65V12.868C23.7186 12.98 23.6626 13.05 23.5366 13.05H15.4866C15.3606 13.05 15.3046 12.98 15.3046 12.868V8.948C15.3046 8.836 15.3606 8.78 15.4866 8.78H16.9146C17.0406 8.78 17.0966 8.836 17.0966 8.948V11.468ZM35.2099 5.616H36.9879C37.1279 5.616 37.1839 5.686 37.1839 5.798V7.03C37.1839 7.128 37.1279 7.198 36.9879 7.198H35.2099V13.008C35.2099 13.12 35.1539 13.176 35.0139 13.176H33.5859C33.4739 13.176 33.4179 13.12 33.4179 13.008V1.052C33.4179 0.94 33.4739 0.87 33.5859 0.87H35.0139C35.1539 0.87 35.2099 0.94 35.2099 1.052V5.616ZM29.7359 2.858H32.3539C32.4799 2.858 32.5359 2.928 32.5359 3.04V4.23C32.5359 4.342 32.4799 4.412 32.3539 4.412H25.3119C25.1859 4.412 25.1439 4.342 25.1439 4.23V3.04C25.1439 2.928 25.1859 2.858 25.3119 2.858H27.9439V1.416C27.9439 1.318 27.9999 1.248 28.1399 1.248H29.5539C29.6799 1.248 29.7359 1.318 29.7359 1.416V2.858ZM28.8539 5.126C30.8279 5.126 32.0879 6.274 32.0879 8.136C32.0879 9.984 30.8279 11.118 28.8539 11.118C26.8939 11.118 25.6479 9.984 25.6479 8.136C25.6479 6.274 26.8939 5.126 28.8539 5.126ZM28.8679 9.648C29.7919 9.648 30.3379 9.004 30.3379 8.136C30.3379 7.24 29.7919 6.596 28.8679 6.596C27.9439 6.596 27.3979 7.24 27.3979 8.136C27.3979 9.004 27.9439 9.648 28.8679 9.648ZM47.0373 0.87H48.4513C48.5773 0.87 48.6193 0.94 48.6193 1.052V13.008C48.6193 13.12 48.5773 13.176 48.4513 13.176H47.0373C46.9253 13.176 46.8693 13.12 46.8693 13.008V1.052C46.8693 0.94 46.9253 0.87 47.0373 0.87ZM44.1113 1.136H45.4973C45.6093 1.136 45.6653 1.206 45.6653 1.318V12.63C45.6653 12.742 45.6093 12.812 45.4973 12.812H44.1113C43.9853 12.812 43.9293 12.742 43.9293 12.63V7.184H41.8853C41.2693 8.486 40.1913 9.718 38.5813 10.908C38.4693 11.006 38.3993 10.964 38.3013 10.88L37.4193 9.816C37.3213 9.746 37.3353 9.62 37.4613 9.522C39.7013 7.884 40.8073 6.134 40.8073 4.048V3.768H37.8953C37.7833 3.768 37.7273 3.712 37.7273 3.6V2.368C37.7273 2.256 37.7833 2.186 37.8953 2.186H42.4033C42.5433 2.186 42.5853 2.256 42.5853 2.368V4.048C42.5853 4.58 42.5293 5.098 42.4313 5.602H43.9293V1.318C43.9293 1.206 43.9853 1.136 44.1113 1.136ZM59.6589 10.418H64.5029C64.6289 10.418 64.6849 10.488 64.6849 10.6V11.832C64.6849 11.93 64.6289 12 64.5029 12H53.0229C52.9109 12 52.8549 11.93 52.8549 11.832V10.6C52.8549 10.488 52.9109 10.418 53.0229 10.418H57.8809V8.612H54.7729C54.6469 8.612 54.6049 8.542 54.6049 8.444V4.664C54.6049 4.552 54.6469 4.468 54.7729 4.468H61.1429V3.334H54.7449C54.6329 3.334 54.5769 3.264 54.5769 3.138V1.99C54.5769 1.878 54.6329 1.808 54.7449 1.808H62.7529C62.8789 1.808 62.9349 1.878 62.9349 1.99V5.742C62.9349 5.84 62.8649 5.924 62.7389 5.924H56.3829V7.128H63.0329C63.1589 7.128 63.2289 7.184 63.2289 7.31V8.444C63.2289 8.542 63.1589 8.612 63.0329 8.612H59.6589V10.418ZM73.4882 3.572H67.0482C66.9362 3.572 66.8802 3.502 66.8802 3.404V2.172C66.8802 2.074 66.9362 2.004 67.0482 2.004H75.0702C75.1962 2.004 75.2522 2.074 75.2522 2.172V3.67C75.2522 5.42 75.0282 7.632 74.7062 9.018C74.6782 9.144 74.5802 9.186 74.4542 9.158L73.1662 8.976C73.0542 8.962 73.0262 8.822 73.0402 8.738C73.2782 7.492 73.5442 5.35 73.5022 4.02L73.4882 3.572ZM65.3822 10.348H76.8622C76.9882 10.348 77.0442 10.418 77.0442 10.53V11.762C77.0442 11.86 76.9882 11.93 76.8622 11.93H65.3822C65.2702 11.93 65.2142 11.86 65.2142 11.762V10.53C65.2142 10.418 65.2702 10.348 65.3822 10.348ZM88.1296 9.844H86.7156C86.5896 9.844 86.5336 9.788 86.5336 9.676V1.052C86.5336 0.94 86.5896 0.87 86.7156 0.87H88.1296C88.2696 0.87 88.3256 0.94 88.3256 1.052V9.676C88.3256 9.788 88.2696 9.844 88.1296 9.844ZM81.4796 7.674C79.4776 7.674 78.0636 6.372 78.0636 4.524C78.0636 2.69 79.4776 1.388 81.4796 1.388C83.4816 1.388 84.8956 2.69 84.8956 4.524C84.8956 6.372 83.4816 7.674 81.4796 7.674ZM81.4796 6.162C82.4596 6.162 83.1456 5.504 83.1456 4.524C83.1456 3.544 82.4596 2.886 81.4796 2.886C80.4996 2.886 79.8136 3.544 79.8136 4.524C79.8136 5.504 80.4996 6.162 81.4796 6.162ZM88.4096 13.05H80.3596C80.2336 13.05 80.1776 12.98 80.1776 12.868V8.878C80.1776 8.78 80.2336 8.71 80.3596 8.71H81.7876C81.9136 8.71 81.9696 8.78 81.9696 8.878V11.468H88.4096C88.5356 11.468 88.5916 11.524 88.5916 11.65V12.868C88.5916 12.98 88.5356 13.05 88.4096 13.05ZM100.083 5.616H101.861C102.001 5.616 102.057 5.686 102.057 5.798V7.03C102.057 7.128 102.001 7.198 101.861 7.198H100.083V13.008C100.083 13.12 100.027 13.176 99.887 13.176H98.459C98.347 13.176 98.291 13.12 98.291 13.008V1.052C98.291 0.94 98.347 0.87 98.459 0.87H99.887C100.027 0.87 100.083 0.94 100.083 1.052V5.616ZM94.609 2.858H97.227C97.353 2.858 97.409 2.928 97.409 3.04V4.23C97.409 4.342 97.353 4.412 97.227 4.412H90.185C90.059 4.412 90.017 4.342 90.017 4.23V3.04C90.017 2.928 90.059 2.858 90.185 2.858H92.817V1.416C92.817 1.318 92.873 1.248 93.013 1.248H94.427C94.553 1.248 94.609 1.318 94.609 1.416V2.858ZM93.727 5.126C95.701 5.126 96.961 6.274 96.961 8.136C96.961 9.984 95.701 11.118 93.727 11.118C91.767 11.118 90.521 9.984 90.521 8.136C90.521 6.274 91.767 5.126 93.727 5.126ZM93.741 9.648C94.665 9.648 95.211 9.004 95.211 8.136C95.211 7.24 94.665 6.596 93.741 6.596C92.817 6.596 92.271 7.24 92.271 8.136C92.271 9.004 92.817 9.648 93.741 9.648ZM110.762 3.572H104C103.874 3.572 103.818 3.502 103.818 3.404V2.172C103.818 2.074 103.874 2.004 104 2.004H112.358C112.47 2.004 112.526 2.074 112.526 2.172V3.67C112.526 5.42 112.302 7.366 111.98 8.752C111.952 8.878 111.854 8.92 111.742 8.892L110.454 8.71C110.342 8.696 110.3 8.556 110.314 8.472C110.552 7.226 110.762 5.35 110.762 4.02V3.572ZM108.284 10.278H113.94C114.066 10.278 114.122 10.348 114.122 10.474V11.692C114.122 11.804 114.066 11.86 113.94 11.86H102.46C102.348 11.86 102.292 11.804 102.292 11.692V10.474C102.292 10.348 102.348 10.278 102.46 10.278H106.506V6.512C106.506 6.414 106.562 6.344 106.688 6.344H108.102C108.228 6.344 108.284 6.414 108.284 6.512V10.278ZM120.878 5.658C120.36 6.358 119.646 6.988 118.764 7.548C118.652 7.618 118.526 7.632 118.47 7.534L117.686 6.568C117.616 6.47 117.602 6.358 117.7 6.288C119.086 5.434 119.94 4.552 119.996 3.502H118.162C118.022 3.502 117.966 3.432 117.966 3.334V2.158C117.966 2.06 118.022 1.99 118.162 1.99H119.996V0.814C119.996 0.715999 120.052 0.645999 120.178 0.645999H121.564C121.69 0.645999 121.746 0.715999 121.746 0.814V1.99H123.454C123.58 1.99 123.636 2.06 123.636 2.158V3.334C123.636 3.432 123.58 3.502 123.454 3.502H121.746C121.788 4.51 122.558 5.308 123.846 6.05C123.944 6.12 123.916 6.204 123.86 6.316L123.174 7.31C123.104 7.408 122.978 7.408 122.866 7.338C122.082 6.876 121.41 6.33 120.878 5.658ZM125.932 7.254H124.546C124.434 7.254 124.378 7.184 124.378 7.086V1.178C124.378 1.08 124.434 1.01 124.546 1.01H125.932C126.058 1.01 126.114 1.08 126.114 1.178V3.544H127.178V1.052C127.178 0.94 127.234 0.87 127.346 0.87H128.76C128.886 0.87 128.928 0.94 128.928 1.052V7.086C128.928 7.184 128.886 7.254 128.76 7.254H127.346C127.234 7.254 127.178 7.184 127.178 7.086V5.126H126.114V7.086C126.114 7.184 126.058 7.254 125.932 7.254ZM121.9 11.79H129.082C129.208 11.79 129.264 11.846 129.264 11.972V13.05C129.264 13.162 129.208 13.218 129.082 13.218H120.318C120.192 13.218 120.15 13.162 120.15 13.05V9.984C120.15 9.872 120.192 9.802 120.318 9.802H127.178V9.214H120.29C120.178 9.214 120.122 9.144 120.122 9.032V7.982C120.122 7.87 120.178 7.8 120.29 7.8H128.76C128.886 7.8 128.928 7.87 128.928 7.982V11.006C128.928 11.118 128.872 11.188 128.746 11.188H121.9V11.79ZM140.643 9.844H139.229C139.103 9.844 139.047 9.788 139.047 9.676V1.052C139.047 0.94 139.103 0.87 139.229 0.87H140.643C140.783 0.87 140.839 0.94 140.839 1.052V9.676C140.839 9.788 140.783 9.844 140.643 9.844ZM133.671 8.248H130.997C130.871 8.248 130.829 8.178 130.829 8.08V4.398C130.829 4.286 130.871 4.202 130.997 4.202H135.337V3.068H130.969C130.857 3.068 130.801 2.998 130.801 2.872V1.822C130.801 1.724 130.857 1.654 130.969 1.654H136.947C137.073 1.654 137.129 1.724 137.129 1.822V5.392C137.129 5.49 137.059 5.574 136.933 5.574H132.607V6.834H133.937C135.001 6.834 136.429 6.764 137.549 6.54C137.661 6.512 137.745 6.568 137.773 6.708L137.913 7.674C137.927 7.786 137.913 7.842 137.773 7.884C136.681 8.136 135.071 8.248 133.671 8.248ZM140.923 13.05H132.873C132.747 13.05 132.691 12.98 132.691 12.868V9.284C132.691 9.172 132.747 9.116 132.873 9.116H134.301C134.427 9.116 134.483 9.172 134.483 9.284V11.468H140.923C141.049 11.468 141.105 11.524 141.105 11.65V12.868C141.105 12.98 141.049 13.05 140.923 13.05ZM151.589 0.87H153.003C153.143 0.87 153.199 0.94 153.199 1.052V13.008C153.199 13.12 153.143 13.176 153.003 13.176H151.589C151.463 13.176 151.407 13.12 151.407 13.008V1.052C151.407 0.94 151.463 0.87 151.589 0.87ZM150.273 9.046C150.385 9.13 150.371 9.242 150.287 9.326L149.447 10.306C149.363 10.39 149.265 10.39 149.153 10.306C147.977 9.354 147.039 8.304 146.563 7.352C146.045 8.388 145.065 9.564 143.847 10.502C143.735 10.586 143.623 10.586 143.553 10.502L142.699 9.522C142.615 9.452 142.615 9.312 142.713 9.242C144.393 7.898 145.625 6.218 145.625 3.95V3.74H143.231C143.105 3.74 143.049 3.67 143.049 3.558V2.326C143.049 2.214 143.105 2.144 143.231 2.144H149.643C149.783 2.144 149.839 2.214 149.839 2.326V3.558C149.839 3.67 149.783 3.74 149.643 3.74H147.403V3.95C147.403 6.148 148.761 7.828 150.273 9.046ZM164.914 5.924H156.808C156.682 5.924 156.626 5.854 156.626 5.756V3.04C156.626 2.928 156.682 2.844 156.808 2.844H163.038V2.368H156.78C156.654 2.368 156.598 2.298 156.598 2.172V1.22C156.598 1.108 156.654 1.052 156.78 1.052H164.634C164.746 1.052 164.802 1.108 164.802 1.22V3.936C164.802 4.048 164.732 4.118 164.62 4.118H158.39V4.636H164.914C165.026 4.636 165.096 4.706 165.096 4.818V5.756C165.096 5.854 165.026 5.924 164.914 5.924ZM166.454 7.856H154.974C154.862 7.856 154.806 7.8 154.806 7.688V6.68C154.806 6.568 154.862 6.498 154.974 6.498H166.454C166.58 6.498 166.636 6.568 166.636 6.68V7.688C166.636 7.8 166.58 7.856 166.454 7.856ZM165.124 13.386H156.668C156.556 13.386 156.5 13.316 156.5 13.204V10.46C156.5 10.348 156.556 10.264 156.668 10.264H163.178V9.788H156.64C156.528 9.788 156.472 9.718 156.472 9.592V8.668C156.472 8.556 156.528 8.486 156.64 8.486H164.76C164.886 8.486 164.942 8.556 164.942 8.668V11.356C164.942 11.468 164.872 11.538 164.746 11.538H158.264V12.07H165.124C165.25 12.07 165.32 12.14 165.32 12.252V13.204C165.32 13.316 165.25 13.386 165.124 13.386ZM179.384 0.87H180.798C180.938 0.87 180.994 0.94 180.994 1.052V13.008C180.994 13.12 180.938 13.176 180.798 13.176H179.384C179.258 13.176 179.202 13.12 179.202 13.008V1.052C179.202 0.94 179.258 0.87 179.384 0.87ZM178.068 8.836C178.18 8.92 178.166 9.046 178.082 9.13L177.242 10.11C177.158 10.18 177.06 10.18 176.948 10.11C175.772 9.172 174.834 8.094 174.358 7.142C173.84 8.164 172.874 9.326 171.642 10.306C171.53 10.39 171.418 10.39 171.348 10.306L170.494 9.326C170.41 9.242 170.41 9.116 170.508 9.046C172.188 7.702 173.42 6.022 173.42 3.684V2.158C173.42 2.06 173.476 1.99 173.602 1.99H175.03C175.142 1.99 175.198 2.06 175.198 2.158V3.684C175.198 5.952 176.584 7.66 178.068 8.836ZM192.751 3.544H194.529C194.669 3.544 194.725 3.614 194.725 3.74V4.944C194.725 5.07 194.669 5.126 194.529 5.126H192.751V7.646C192.751 7.758 192.695 7.814 192.555 7.814H191.127C191.015 7.814 190.959 7.758 190.959 7.646V1.052C190.959 0.94 191.015 0.87 191.127 0.87H192.555C192.695 0.87 192.751 0.94 192.751 1.052V3.544ZM186.479 5.658C185.849 6.47 184.855 7.24 183.665 7.828C183.553 7.884 183.413 7.856 183.371 7.786L182.671 6.722C182.601 6.61 182.601 6.484 182.699 6.442C184.337 5.602 185.569 4.65 185.569 3.46V3.166H183.217C183.077 3.166 183.035 3.096 183.035 2.998V1.822C183.035 1.724 183.077 1.654 183.217 1.654H189.643C189.769 1.654 189.825 1.724 189.825 1.822V2.998C189.825 3.096 189.769 3.166 189.643 3.166H187.361V3.46C187.361 4.58 188.327 5.378 190.035 6.204C190.133 6.26 190.133 6.372 190.091 6.47L189.447 7.548C189.405 7.646 189.265 7.646 189.153 7.59C188.131 7.142 187.165 6.428 186.479 5.658ZM184.687 8.444H192.569C192.695 8.444 192.751 8.5 192.751 8.612V13.134C192.751 13.232 192.695 13.302 192.569 13.302H191.141C191.015 13.302 190.959 13.232 190.959 13.134V9.998H184.687C184.561 9.998 184.505 9.928 184.505 9.816V8.612C184.505 8.5 184.561 8.444 184.687 8.444ZM204.578 0.87H205.992C206.118 0.87 206.16 0.94 206.16 1.052V13.008C206.16 13.12 206.118 13.176 205.992 13.176H204.578C204.466 13.176 204.41 13.12 204.41 13.008V7.254H203.346V12.63C203.346 12.742 203.29 12.812 203.164 12.812H201.778C201.666 12.812 201.61 12.742 201.61 12.63V1.318C201.61 1.206 201.666 1.136 201.778 1.136H203.164C203.29 1.136 203.346 1.206 203.346 1.318V5.672H204.41V1.052C204.41 0.94 204.466 0.87 204.578 0.87ZM198.936 3.026H201.008C201.12 3.026 201.176 3.096 201.176 3.194V4.37C201.176 4.468 201.12 4.538 201.008 4.538H194.974C194.848 4.538 194.792 4.468 194.792 4.37V3.194C194.792 3.096 194.848 3.026 194.974 3.026H197.144V1.416C197.144 1.318 197.2 1.248 197.34 1.248H198.754C198.88 1.248 198.936 1.318 198.936 1.416V3.026ZM198.04 5.266C199.874 5.266 200.91 6.428 200.91 8.192C200.91 9.97 199.874 11.118 198.04 11.118C196.206 11.118 195.184 9.97 195.184 8.192C195.184 6.428 196.206 5.266 198.04 5.266ZM198.054 9.662C198.852 9.662 199.202 9.074 199.202 8.192C199.202 7.31 198.852 6.722 198.054 6.722C197.242 6.722 196.892 7.31 196.892 8.192C196.892 9.074 197.242 9.662 198.054 9.662ZM214.124 6.106H218.968C219.094 6.106 219.15 6.176 219.15 6.288V7.38C219.15 7.478 219.094 7.548 218.968 7.548H207.488C207.376 7.548 207.32 7.478 207.32 7.38V6.288C207.32 6.176 207.376 6.106 207.488 6.106H212.332V5.336H209.224C209.098 5.336 209.042 5.266 209.042 5.154V1.08C209.042 0.967999 209.098 0.897999 209.224 0.897999H210.638C210.764 0.897999 210.806 0.967999 210.806 1.08V1.85H215.65V1.08C215.65 0.967999 215.706 0.897999 215.818 0.897999H217.246C217.372 0.897999 217.428 0.967999 217.428 1.08V5.154C217.428 5.266 217.372 5.336 217.246 5.336H214.124V6.106ZM215.65 3.236H210.806V3.936H215.65V3.236ZM210.778 11.888H217.638C217.764 11.888 217.834 11.958 217.834 12.084V13.134C217.834 13.232 217.764 13.302 217.638 13.302H209.182C209.07 13.302 209.014 13.232 209.014 13.134V10.208C209.014 10.11 209.07 10.026 209.182 10.026H215.692V9.55H209.154C209.042 9.55 208.986 9.48 208.986 9.368V8.346C208.986 8.234 209.042 8.164 209.154 8.164H217.274C217.4 8.164 217.456 8.234 217.456 8.346V11.216C217.456 11.328 217.386 11.398 217.26 11.398H210.778V11.888ZM229.955 5.196H231.607C231.747 5.196 231.803 5.266 231.803 5.392V6.61C231.803 6.722 231.747 6.792 231.607 6.792H229.955V13.008C229.955 13.12 229.899 13.176 229.773 13.176H228.415C228.289 13.176 228.233 13.12 228.233 13.008V1.052C228.233 0.94 228.289 0.87 228.415 0.87H229.773C229.899 0.87 229.955 0.94 229.955 1.052V5.196ZM223.361 2.41V4.048C223.361 5.714 222.563 7.856 220.855 9.886C220.771 9.998 220.659 9.998 220.561 9.914L219.483 9.074C219.399 9.004 219.427 8.878 219.511 8.78C220.897 7.128 221.639 5.378 221.639 4.048V3.768H220.169C220.057 3.768 220.001 3.712 220.001 3.6V2.41C220.001 2.298 220.057 2.228 220.169 2.228H223.165C223.305 2.228 223.361 2.298 223.361 2.41ZM223.935 2.228H226.931C227.071 2.228 227.127 2.298 227.127 2.41V4.048C227.127 6.344 226.497 8.234 224.859 10.656C224.789 10.768 224.719 10.768 224.607 10.698L223.431 9.9C223.319 9.83 223.333 9.774 223.417 9.662C224.789 7.674 225.293 6.12 225.391 4.048L225.405 3.768H223.935C223.809 3.768 223.767 3.712 223.767 3.6V2.41C223.767 2.298 223.809 2.228 223.935 2.228ZM241.082 10.418H243.686C243.812 10.418 243.868 10.488 243.868 10.6V11.832C243.868 11.93 243.812 12 243.686 12H232.206C232.094 12 232.038 11.93 232.038 11.832V10.6C232.038 10.488 232.094 10.418 232.206 10.418H234.824V7.506C233.998 6.96 233.48 6.12 233.48 4.986C233.48 2.732 235.524 1.668 237.946 1.668C240.368 1.668 242.426 2.732 242.426 4.986C242.426 6.12 241.908 6.946 241.082 7.492V10.418ZM237.946 3.236C236.406 3.236 235.258 3.768 235.258 4.986C235.258 6.19 236.406 6.736 237.946 6.736C239.5 6.736 240.634 6.176 240.634 4.986C240.634 3.768 239.5 3.236 237.946 3.236ZM236.602 8.178V10.418H239.29V8.192C238.87 8.262 238.408 8.304 237.946 8.304C237.484 8.304 237.022 8.262 236.602 8.178ZM248.318 9.438H246.96C246.848 9.438 246.778 9.382 246.778 9.256L246.722 6.484C246.722 6.372 246.792 6.302 246.904 6.302H247.408C248.794 6.302 249.396 5.644 249.396 4.622C249.396 3.67 248.85 3.138 247.926 3.138C247.142 3.138 246.624 3.558 246.316 4.244C246.26 4.342 246.176 4.384 246.078 4.356L244.608 3.978C244.496 3.95 244.44 3.866 244.482 3.754C245.028 2.214 246.33 1.29 248.066 1.29C249.998 1.29 251.356 2.48 251.356 4.44C251.356 6.148 250.362 7.534 248.528 7.842L248.5 9.256C248.5 9.382 248.43 9.438 248.318 9.438ZM247.632 12.406C247.002 12.406 246.512 11.972 246.512 11.328C246.512 10.684 247.002 10.264 247.632 10.264C248.262 10.264 248.752 10.684 248.752 11.328C248.752 11.972 248.262 12.406 247.632 12.406Z" fill="#202020"/>
</svg>
