<svg width="320" height="56" viewBox="0 0 320 56" fill="none" xmlns="http://www.w3.org/2000/svg">
<rect x="2" y="2" width="316" height="52" rx="10" stroke="black" stroke-width="4"/>
<path d="M157.222 25.14H159.762C159.962 25.14 160.042 25.22 160.042 25.4V27.14C160.042 27.3 159.962 27.4 159.762 27.4H157.222V33.16C157.222 33.32 157.142 33.4 156.942 33.4H154.902C154.742 33.4 154.662 33.32 154.662 33.16V20.36C154.662 20.2 154.742 20.1 154.902 20.1H156.942C157.142 20.1 157.222 20.2 157.222 20.36V25.14ZM153.642 30.8C151.442 31.22 148.982 31.4 145.882 31.4H142.682C142.502 31.4 142.422 31.3 142.422 31.14V29.52C142.422 29.38 142.502 29.28 142.682 29.28H145.382C145.902 29.28 146.422 29.28 146.922 29.26V27.8C144.762 27.4 143.582 25.96 143.582 24.26C143.582 22.28 145.222 20.64 148.142 20.64C151.082 20.64 152.742 22.28 152.742 24.26C152.742 25.94 151.582 27.36 149.482 27.78V29.16C150.902 29.06 152.202 28.92 153.402 28.72C153.582 28.68 153.682 28.8 153.702 28.96L153.902 30.52C153.902 30.68 153.822 30.76 153.642 30.8ZM146.082 24.26C146.082 25.16 146.762 25.9 148.142 25.9C149.542 25.9 150.242 25.16 150.242 24.26C150.242 23.38 149.542 22.64 148.142 22.64C146.762 22.64 146.082 23.38 146.082 24.26ZM148.142 35.34H157.622C157.802 35.34 157.882 35.44 157.882 35.62V37.36C157.882 37.52 157.802 37.62 157.622 37.62H145.862C145.682 37.62 145.602 37.52 145.602 37.36V32.64C145.602 32.48 145.682 32.4 145.862 32.4H147.902C148.082 32.4 148.142 32.48 148.142 32.64V35.34ZM172.998 33.74H177.018C177.198 33.74 177.278 33.84 177.278 34V35.76C177.278 35.9 177.198 36 177.018 36H160.618C160.458 36 160.378 35.9 160.378 35.76V34C160.378 33.84 160.458 33.74 160.618 33.74H164.638V31.16H163.058C162.898 31.16 162.818 31.06 162.818 30.92V25.52C162.818 25.36 162.898 25.24 163.058 25.24H172.278V23.62H163.018C162.858 23.62 162.778 23.52 162.778 23.34V21.7C162.778 21.54 162.858 21.44 163.018 21.44H174.578C174.758 21.44 174.838 21.54 174.838 21.7V27.06C174.838 27.2 174.738 27.32 174.558 27.32H165.358V29.04H174.978C175.158 29.04 175.258 29.12 175.258 29.3V30.92C175.258 31.06 175.158 31.16 174.978 31.16H172.998V33.74ZM170.458 31.16H167.198V33.74H170.458V31.16Z" fill="#1B1B1B"/>
</svg>
