<svg width="320" height="70" viewBox="0 0 320 70" fill="none" xmlns="http://www.w3.org/2000/svg">
<path d="M318.131 35.9957C311.383 35.1477 304.605 35.4593 297.919 37.0895C297.157 37.2753 295.702 37.9555 296.133 39.4868C296.536 40.9281 298.456 41.048 299.279 40.8472C305.057 39.4388 310.931 39.0193 316.771 39.7535C317.688 39.8703 319.45 39.9123 319.917 38.393C320.369 36.9247 318.853 36.0886 318.131 35.9957Z" fill="#1B1B1B"/>
<path d="M315.497 50.2532C311.104 47.8277 306.602 45.8786 302.009 44.4116C300.945 44.0726 299.403 43.8739 298.543 45.0925C297.759 46.203 298.603 47.4186 299.451 47.6904C304.043 49.1573 308.548 51.1094 312.939 53.532C313.916 54.0697 315.622 53.9615 316.406 52.8511C317.261 51.6413 316.266 50.6769 315.497 50.2532Z" fill="#1B1B1B"/>
<path d="M1.86861 35.9957C8.61692 35.1477 15.3946 35.4593 22.0815 37.0895C22.8435 37.2753 24.2979 37.9555 23.8675 39.4868C23.4638 40.9281 21.5441 41.048 20.7206 40.8472C14.9428 39.4388 9.06877 39.0193 3.2295 39.7535C2.31243 39.8703 0.550491 39.9123 0.0826005 38.393C-0.369248 36.9247 1.14672 36.0886 1.86861 35.9957Z" fill="#1B1B1B"/>
<path d="M4.50252 50.2532C8.89617 47.8277 13.3984 45.8786 17.9907 44.4116C19.0554 44.0726 20.5967 43.8739 21.4574 45.0925C22.2414 46.203 21.3965 47.4186 20.549 47.6904C15.9568 49.1573 11.4519 51.1094 7.06085 53.532C6.0836 54.0697 4.37804 53.9615 3.59412 52.8511C2.7387 51.6413 3.73449 50.6769 4.50252 50.2532Z" fill="#1B1B1B"/>
<path d="M304.023 55.0476C303.09 53.0742 296.505 53.646 297.582 55.9229C298.928 58.7717 297.443 62.015 295.105 63.9707C292.388 66.2426 288.499 66.4273 285.05 66.4753C275.553 66.6069 266.045 66.5209 256.545 66.5386C237.351 66.5765 218.154 66.612 198.959 66.6499C189.005 66.6701 179.049 66.6879 169.095 66.7081C157.327 66.6879 130.997 66.6701 121.043 66.6499C101.849 66.612 82.6517 66.5765 63.4572 66.5386C53.9575 66.5209 44.4498 66.6069 34.9527 66.4753C31.5065 66.4273 27.6142 66.2426 24.8973 63.9707C22.5598 62.015 21.0744 58.7717 22.4209 55.9229C23.4975 53.646 16.915 53.0767 15.98 55.0476C15.2694 56.5478 15.0423 58.167 15.4163 59.7786C17.468 68.6283 28.4717 69.744 36.3338 69.7744C46.44 69.8123 56.5462 69.8123 66.6523 69.8326C86.9154 69.8705 107.176 69.911 127.439 69.9489L167.342 69.9945V69.9995H168.686H171.008V69.992L192.561 69.9515C212.824 69.9135 233.085 69.8731 253.348 69.8351C263.454 69.8149 273.56 69.8149 283.666 69.7769C291.528 69.7466 302.532 68.6334 304.584 59.7811C304.958 58.1695 304.731 56.5529 304.02 55.0501L304.023 55.0476Z" fill="#1B1B1B"/>
<path d="M303.532 15.91C301.368 12.2811 297.179 10.7213 293.161 10.1218C288.499 9.42683 283.639 9.75841 278.943 9.76902L269.528 9.78229C268.454 6.90677 267.712 4.89073 266.347 1.2539C266.005 0.338723 264.338 0.0681477 263.571 0.0177467C262.558 -0.0485705 261.001 0.0389698 260.245 0.840081C256.737 4.54588 255.238 6.54601 252.711 9.83799L202.914 9.92023L169.72 9.98654L117.091 9.92023L67.294 9.83799C64.7641 6.54601 63.2654 4.54588 59.7603 0.840081C59.0016 0.0389698 57.4441 -0.0485705 56.4343 0.0177467C55.6675 0.0681477 54.0005 0.338723 53.6586 1.2539C52.2934 4.89073 51.5507 6.90677 50.4768 9.78229L41.0623 9.76902C36.3658 9.75841 31.5063 9.42683 26.8445 10.1218C22.8292 10.7213 18.6375 12.2811 16.4736 15.91C14.7264 18.8412 14.7291 22.4382 17.1468 24.9689C18.1673 26.0353 20.4515 25.9796 21.7151 25.587C22.8131 25.2474 23.9378 24.2978 22.912 23.2288C21.9582 22.2313 21.7659 20.8493 21.9235 19.5309C22.3002 16.4113 24.766 14.2547 27.7394 13.5968C31.6452 12.7321 35.9971 13.2069 39.991 13.2149C44.4712 13.2228 51.508 13.2334 55.9881 13.2414L56.1511 12.7374C57.1903 9.96532 57.1716 9.96267 58.2108 7.19061C59.6054 8.87507 60.0301 9.67883 62.0712 12.4297L62.6108 13.2679H68.8221C88.0224 13.3077 107.22 13.3448 126.42 13.3846C133.663 13.3979 155.193 13.4138 167.343 13.4297V13.4377C168.259 13.4377 169.175 13.435 170.092 13.4324C171.417 13.4324 172.565 13.435 173.482 13.4377V13.4244C180.182 13.4112 186.882 13.3979 193.58 13.3846C212.78 13.3448 231.977 13.3077 251.178 13.2679H257.389L257.929 12.4297C259.967 9.67618 260.395 8.87507 261.789 7.19061C262.828 9.96267 262.81 9.96532 263.849 12.7374L264.012 13.2414C268.492 13.2334 275.529 13.2228 280.009 13.2149C284.003 13.2069 288.355 12.7321 292.26 13.5968C295.234 14.2547 297.7 16.4113 298.076 19.5309C298.237 20.8493 298.042 22.2313 297.088 23.2288C296.065 24.3004 297.187 25.2474 298.285 25.587C299.548 25.9796 301.835 26.0353 302.853 24.9689C305.271 22.4409 305.273 18.8412 303.526 15.91H303.532Z" fill="#1B1B1B"/>
</svg>
