<svg width="360" height="56" viewBox="0 0 360 56" fill="none" xmlns="http://www.w3.org/2000/svg">
<path d="M145.549 16.353C145.526 16.3432 145.504 16.3383 145.482 16.3285C145.232 16.1987 144.954 16.1007 144.656 16.0321C144.364 15.9978 144.071 15.9905 143.779 16.0125C143.454 16.0566 143.132 16.1252 142.812 16.2036C142.765 16.2183 142.718 16.2329 142.671 16.2501C142.502 16.3187 142.334 16.3848 142.16 16.4436C141.994 16.5097 141.826 16.5734 141.655 16.6248C141.61 16.6395 141.556 16.6542 141.501 16.6713C140.589 16.9603 139.657 17.1097 138.708 17.242C138.276 17.3008 137.835 17.3718 137.394 17.4208C137.205 17.4746 137.02 17.5334 136.836 17.5995C136.618 17.7024 136.407 17.8175 136.214 17.9522C135.924 18.1555 135.681 18.4126 135.483 18.7237C135.284 19.0347 135.143 19.3898 135.061 19.789C134.98 20.1882 134.98 20.634 135.061 21.1238C135.227 21.8757 135.515 22.4414 135.929 22.8259C136.343 23.2104 136.871 23.377 137.515 23.328C137.895 23.2961 138.291 23.2545 138.705 23.2055C139.119 23.1565 139.506 23.0904 139.87 23.0096C140.019 22.9924 140.135 23.0096 140.217 23.0586C140.299 23.1076 140.346 23.1688 140.353 23.2423C140.361 23.3157 140.336 23.3941 140.279 23.4749C140.222 23.5557 140.135 23.6145 140.019 23.6464C139.739 23.7272 139.411 23.8055 139.04 23.879C138.802 23.9255 138.574 23.9672 138.353 24.0039C138.47 24.4494 138.582 25.3114 138.594 25.7964C138.607 26.2813 138.584 26.2911 138.594 26.776C138.47 27.7556 138.47 28.6512 138.056 29.7054C137.753 30.4744 137.451 31.2434 137.158 32.0149C136.583 33.526 136.137 35.1914 136.64 36.7906C136.737 37.0943 136.868 37.3809 137.029 37.6454C137.067 37.7507 137.121 37.856 137.2 37.9613C137.265 38.047 137.332 38.1254 137.399 38.2062C137.399 38.2062 137.396 38.2062 137.394 38.2087C137.404 38.2209 137.416 38.2307 137.429 38.2405C139.615 40.7704 143.355 40.5108 145.095 37.856C145.514 37.3319 145.807 36.7367 145.988 36.1049C146 36.0314 146.015 35.9579 146.025 35.882C146.154 34.9391 146.057 33.9766 145.846 33.0509C145.737 32.5708 145.598 32.1006 145.514 31.6157C145.43 31.143 145.37 30.6654 145.336 30.1854C145.331 30.1046 145.331 30.0213 145.326 29.9405C145.187 28.6792 145.182 27.4057 145.326 26.1322C145.566 24.0039 146.483 22.2259 147.034 20.198C147.435 18.7139 147.123 17.002 145.549 16.353Z" fill="#1B1B1B"/>
<path d="M164.838 29.727C164.813 28.8821 164.741 28.042 164.625 27.2069C164.516 26.2101 164.365 25.2182 164.171 24.2312C164.154 24.1406 164.124 24.0574 164.09 23.9814C164.03 23.7096 163.966 23.4402 163.891 23.1732C163.527 21.8752 162.979 20.7437 162.243 19.7812C161.507 18.8188 160.587 18.0595 159.479 17.5036C158.371 16.9476 157.082 16.6709 155.612 16.6709C154.143 16.6709 152.854 16.9476 151.746 17.5036C150.638 18.0595 149.718 18.8188 148.982 19.7812C148.546 20.3519 148.176 20.9837 147.866 21.6744C146.377 24.2753 145.94 27.6183 146.223 30.812C146.349 31.7059 146.538 32.59 146.781 33.457C146.915 33.7631 147.056 34.0643 147.217 34.3582C147.938 35.6807 148.935 36.8514 150.162 37.738C150.174 37.7404 150.186 37.7429 150.199 37.7527C150.484 37.956 150.791 38.1249 151.106 38.2792C151.562 38.4458 152.026 38.5976 152.497 38.7225C154.579 39.2687 156.792 39.3911 158.909 38.9723C159.145 38.9258 159.378 38.8695 159.608 38.8107C159.71 38.7837 159.811 38.7544 159.913 38.725C160.354 38.5976 160.788 38.4458 161.209 38.2719C161.7 38.0074 162.169 37.7086 162.62 37.3829C163.264 36.8318 163.834 36.1975 164.231 35.4652C164.947 33.768 165.014 31.6936 164.836 29.727H164.838ZM155.501 28.9776C155.607 29.558 155.803 30.1238 156.083 30.6797C156.182 30.8585 156.207 31.0177 156.158 31.1573C156.108 31.2969 156.026 31.3948 155.91 31.4512C155.793 31.5075 155.669 31.5197 155.538 31.4879C155.407 31.4561 155.29 31.3483 155.191 31.1695C154.894 30.5989 154.675 29.9817 154.534 29.3205C154.393 28.6592 154.323 27.993 154.323 27.3244C154.323 26.6558 154.393 26.0142 154.534 25.3529C154.675 24.6917 154.894 24.0745 155.191 23.5039C155.29 23.3398 155.407 23.2394 155.538 23.1977C155.669 23.1561 155.793 23.1659 155.91 23.2222C156.026 23.2785 156.108 23.3765 156.158 23.5161C156.207 23.6557 156.182 23.8222 156.083 24.0182C155.803 24.557 155.607 25.1203 155.501 25.708C155.394 26.2958 155.34 26.8346 155.34 27.3244C155.34 27.8461 155.394 28.3971 155.501 28.9776Z" fill="#1B1B1B"/>
<path d="M182.606 22.5367C182.447 22.2746 182.286 22.015 182.115 21.7603C181.138 20.3055 179.988 18.8875 178.486 17.9397C177.442 17.2809 176.275 16.845 175.063 16.6197C171.873 16.3552 168.492 16.6148 166.553 19.5096C165.374 21.2729 165.123 23.2567 165.299 25.2552C165.297 25.3188 165.297 25.385 165.304 25.4535C165.421 26.3891 165.537 27.3246 165.654 28.2602C165.74 29.7933 165.827 31.324 165.926 32.8547C166.043 34.6548 166.335 36.4108 167.823 37.5814C168.39 37.9366 168.995 38.2353 169.625 38.4705C171.793 39.2787 174.2 39.3595 176.444 38.8231C177.202 38.6419 177.948 38.3872 178.662 38.0713C178.764 38.0174 178.865 37.9635 178.967 37.9047C179.8 37.4027 180.546 36.783 181.262 36.1316C181.297 36.0899 181.337 36.0483 181.371 36.0067C181.842 35.4507 182.271 34.8532 182.623 34.2164C182.863 33.7804 183.062 33.3249 183.23 32.862C183.25 32.7959 183.267 32.7298 183.285 32.6637C183.384 32.2253 183.461 31.7795 183.548 31.3387C183.552 31.3191 183.557 31.3044 183.567 31.2897C183.57 31.2456 183.575 31.204 183.58 31.1599C183.644 30.7779 183.691 30.3934 183.726 30.0088C183.731 29.9697 183.733 29.928 183.736 29.8888C183.738 29.8521 183.743 29.8178 183.746 29.7811C183.979 27.2683 183.649 24.7286 182.611 22.5367H182.606ZM174.389 28.9778C174.495 29.5582 174.691 30.124 174.971 30.6799C175.07 30.8587 175.095 31.0179 175.046 31.1575C174.996 31.2971 174.914 31.395 174.798 31.4514C174.681 31.5077 174.557 31.5199 174.426 31.4881C174.295 31.4563 174.178 31.3485 174.079 31.1697C173.781 30.5991 173.563 29.9819 173.422 29.3207C173.281 28.6594 173.211 27.9932 173.211 27.3246C173.211 26.656 173.281 26.0144 173.422 25.3531C173.563 24.6919 173.781 24.0747 174.079 23.5041C174.178 23.34 174.295 23.2396 174.426 23.1979C174.557 23.1563 174.681 23.1661 174.798 23.2224C174.914 23.2787 174.996 23.3767 175.046 23.5163C175.095 23.6559 175.07 23.8224 174.971 24.0184C174.691 24.5572 174.495 25.1205 174.389 25.7082C174.282 26.296 174.228 26.8348 174.228 27.3246C174.228 27.8463 174.282 28.3973 174.389 28.9778Z" fill="#1B1B1B"/>
<path d="M206.88 34.7408C206.828 34.1138 206.775 33.4869 206.721 32.8599C206.639 32.4215 206.562 31.9831 206.5 31.5423C206.297 30.0998 206.119 28.6524 206.007 27.1976C205.925 26.1273 205.896 25.0571 205.901 23.9844C205.844 22.6937 205.757 21.4226 205.633 20.1687C205.583 19.7107 205.484 19.287 205.335 18.8952C205.187 18.5033 204.976 18.1605 204.703 17.8666C204.431 17.5727 204.101 17.34 203.712 17.1686C203.323 16.9971 202.864 16.9114 202.336 16.9114C201.741 16.9114 201.228 17.0167 200.799 17.2298C200.371 17.4429 200.023 17.7368 199.758 18.1115C199.394 18.6184 199.034 19.1817 198.68 19.8013C198.326 20.421 197.979 21.0626 197.639 21.7239C197.299 22.3851 196.975 23.0586 196.66 23.7444C196.345 24.4301 196.04 25.0914 195.743 25.7281C195.661 25.8922 195.562 25.9731 195.445 25.9731C195.329 25.9731 195.23 25.8922 195.148 25.7281C194.85 25.0914 194.546 24.4301 194.231 23.7444C193.916 23.0586 193.591 22.3851 193.252 21.7239C192.912 21.0626 192.565 20.421 192.211 19.8013C191.856 19.1817 191.497 18.6184 191.132 18.1115C190.852 17.7368 190.5 17.4429 190.079 17.2298C189.724 17.051 189.303 16.953 188.822 16.9237C188.413 16.8698 188.004 16.8673 187.6 16.9359C185.672 16.9286 184.026 18.6209 183.766 20.6806C183.557 22.3362 184.142 23.9305 184.415 25.5445C184.717 27.3323 184.73 29.2083 184.45 31.001C184.023 33.7367 183.007 37.0013 186.18 38.5369C186.827 38.8504 187.476 38.9973 188.118 39.0169C188.148 39.0169 188.175 39.0169 188.205 39.0169C189.075 38.9949 189.95 38.8479 190.795 38.6496C190.877 38.63 190.959 38.6079 191.038 38.5859C191.231 38.5198 191.422 38.4487 191.611 38.3753C192.456 38.0152 193.2 37.3932 193.737 36.5262C193.79 36.4405 193.832 36.3548 193.861 36.2715C194.256 35.6323 194.422 34.851 194.27 33.9889C194.075 32.877 193.423 31.8974 192.872 30.93C192.466 30.2173 192.059 29.5046 191.653 28.7944C191.593 28.6548 191.536 28.5201 191.482 28.3879C191.284 27.9054 191.11 27.3886 190.961 26.8327C190.929 26.6857 190.932 26.5706 190.974 26.4898C191.016 26.409 191.073 26.3551 191.147 26.3306C191.222 26.3061 191.296 26.3184 191.37 26.3674C191.445 26.4163 191.499 26.4972 191.531 26.6123C191.811 27.4939 192.171 28.4001 192.61 29.3308C193.048 30.2614 193.482 31.1186 193.911 31.9023C194.077 32.2133 194.3 32.446 194.58 32.6003C194.86 32.7546 195.15 32.833 195.448 32.833C195.745 32.833 196.03 32.7546 196.303 32.6003C196.576 32.446 196.804 32.2133 196.985 31.9023C197.413 31.1186 197.847 30.2614 198.286 29.3308C198.725 28.4001 199.084 27.4939 199.364 26.6123C199.396 26.4972 199.451 26.4163 199.525 26.3674C199.6 26.3184 199.674 26.3061 199.748 26.3306C199.823 26.3551 199.88 26.409 199.922 26.4898C199.964 26.5706 199.966 26.6857 199.934 26.8327C199.786 27.3886 199.612 27.9054 199.414 28.3879C199.233 28.8287 199.015 29.3161 198.764 29.8451C198.757 29.8524 198.752 29.8598 198.747 29.8671C198.521 30.4035 198.246 30.9202 197.971 31.4321C197.572 32.1742 197.19 32.9138 196.962 33.7269C196.752 34.4837 196.655 35.2698 196.697 36.0535C196.697 36.0903 196.704 36.127 196.707 36.1637C196.752 36.3278 196.801 36.4919 196.856 36.6511C197.151 37.1972 197.577 37.6944 198.041 38.0397C199.647 39.2373 202.356 39.4308 204.282 39.0145C206.478 38.5393 207.048 36.7491 206.885 34.7408H206.88Z" fill="#1B1B1B"/>
<path d="M222.476 31.8927C221.96 31.8167 221.455 31.8951 220.947 31.9857C220.922 31.9906 220.902 31.9955 220.877 32.0029C220.548 32.0837 220.203 32.1498 219.849 32.1988C219.494 32.2478 219.159 32.2723 218.845 32.2723C217.952 32.2723 217.184 32.2159 216.539 32.1008C215.895 31.9857 215.308 31.8241 214.78 31.611C214.646 31.562 214.556 31.4886 214.507 31.3906C214.457 31.2926 214.445 31.202 214.47 31.1212C214.495 31.0404 214.552 30.9743 214.643 30.9253C214.735 30.8763 214.854 30.8763 215.003 30.9253C215.548 31.1212 216.143 31.273 216.787 31.3784C217.432 31.4837 218.064 31.5424 218.684 31.5498C219.303 31.5571 219.886 31.5131 220.431 31.4151C220.976 31.3171 221.415 31.1628 221.745 30.9498C222.322 30.6069 222.749 30.1538 223.021 29.5905C223.294 29.0272 223.43 28.2803 223.43 27.3496C223.43 26.4189 223.294 25.6769 223.021 25.1209C222.749 24.565 222.322 24.1094 221.745 23.7494C221.415 23.5535 220.976 23.4066 220.431 23.3086C219.886 23.2106 219.303 23.1665 218.684 23.1739C218.064 23.1812 217.432 23.2351 216.787 23.3331C216.143 23.4311 215.548 23.578 215.003 23.7739C214.854 23.8229 214.735 23.8278 214.643 23.7862C214.552 23.7445 214.495 23.6809 214.47 23.5902C214.445 23.4996 214.457 23.4066 214.507 23.3086C214.556 23.2106 214.648 23.1372 214.78 23.0882C215.308 22.8751 215.895 22.7086 216.539 22.5861C217.184 22.4637 217.952 22.4024 218.845 22.4024C219.159 22.4024 219.494 22.4318 219.849 22.4882C220.101 22.5298 220.344 22.5788 220.585 22.6302C221.45 22.7404 222.337 22.809 223.13 22.4171C223.557 22.2041 223.876 21.8857 224.122 21.511C224.883 19.7231 223.795 17.5336 221.978 16.5956C221.722 16.4634 221.455 16.3507 221.18 16.2552C221.08 16.2332 220.981 16.2111 220.882 16.194C219.717 15.9932 218.51 16.0372 217.348 16.2258C215.84 16.4683 214.343 16.745 212.826 16.9263C212.1 17.0144 211.371 17.0414 210.645 17.105C209.944 17.1663 209.217 17.2912 208.59 17.6267C208.335 17.7639 208.097 17.9377 207.884 18.1386C206.203 20.208 206.885 23.1886 207.113 25.7479C207.277 27.5774 207.44 29.4093 207.601 31.2388C207.743 32.8356 207.633 34.7557 208.221 36.2667C208.258 36.3623 208.298 36.4529 208.34 36.541C208.362 36.6806 208.412 36.8251 208.494 36.9721C209.599 38.9093 212.435 38.9803 214.636 38.8432C215.925 38.8505 217.214 38.8554 218.503 38.8628C220.052 38.8701 221.799 39.0489 223.197 38.2481C225.299 37.0431 225.522 34.3001 224.08 32.6788C223.621 32.287 223.083 31.9882 222.476 31.8976V31.8927Z" fill="#1B1B1B"/>
</svg>
