<svg width="320" height="64" viewBox="0 0 320 64" fill="none" xmlns="http://www.w3.org/2000/svg">
<g clip-path="url(#clip0_400_4194)">
<path d="M280.615 37.8413C280.348 36.3858 280.221 34.9188 280.151 33.445C277.299 33.4747 274.448 33.5022 271.596 33.5319C271.514 33.4518 271.411 33.3832 271.289 33.3305C270.529 33.0101 269.872 32.3259 269.547 31.4928C269.502 31.3784 269.465 31.264 269.432 31.1472L280.073 30.8223C280.051 29.5315 280.041 28.2407 279.991 26.9546C279.956 26.6937 279.926 26.4328 279.896 26.1719C276.502 26.2749 273.108 26.3778 269.715 26.4808C268.912 26.2657 267.8 27.4558 267.421 27.9501C266.096 29.678 265.171 31.978 265.594 34.2803C265.921 36.0677 267.043 37.3355 268.523 37.9947C268.675 38.1549 268.91 38.251 269.247 38.2464C273.068 38.2075 276.889 38.1686 280.71 38.1297C280.668 38.0427 280.633 37.9466 280.61 37.8367L280.615 37.8413Z" fill="black"/>
<path d="M317.336 8.41941C317.256 8.05782 317.169 7.69851 317.084 7.33921C317.014 7.21333 316.951 7.08517 316.899 6.95244C316.864 6.86318 316.584 6.23382 316.634 6.32308C316.539 6.13084 316.441 5.93631 316.344 5.74407C316.131 5.31611 315.919 4.88814 315.722 4.45331C315.654 4.46704 315.584 4.48535 315.514 4.50824C315.397 2.86733 314.07 1.52851 312.365 0.885424C311.801 0.672586 311.216 0.565023 310.629 0.542137C310.566 0.498654 310.489 0.466614 310.394 0.446017C310.176 0.402534 309.959 0.359051 309.741 0.315569C309.664 0.244623 309.552 0.198851 309.394 0.191985C302.849 -0.107818 296.284 -0.0574692 289.744 0.349897C289.492 0.365917 289.244 0.450594 289.01 0.578755C287.308 0.368206 285.538 0.919752 284.139 1.80085C281.985 3.15798 280.438 5.12615 279.598 7.33005C278.751 9.55455 278.669 11.9209 278.559 14.2461C278.111 23.714 277.714 33.239 278.914 42.6771C279.506 47.3458 280.485 51.9916 282.035 56.4909C283.042 59.4157 284.904 65.3981 289.699 63.6999C296.007 63.6862 302.314 63.6725 308.619 63.6588C309.562 64.089 310.686 64.1485 312.036 63.6084C316.679 61.7501 317.386 56.3879 318.111 52.5111C319.02 47.6387 319.608 42.716 319.858 37.7818C320.355 27.9478 319.49 18.0749 317.331 8.41941H317.336ZM301.992 60.5829C301.832 60.631 301.655 60.6561 301.455 60.6539C299.553 60.6195 297.651 60.8095 295.742 60.7843C293.768 60.7568 291.788 60.8461 289.814 60.8461C289.454 60.8461 289.162 60.7546 288.932 60.6058C287.635 60.0382 286.908 58.6079 286.421 57.4865C284.696 53.5249 283.547 49.3277 282.772 45.1465C281.208 36.697 281.153 28.0943 281.44 19.5579C281.52 17.1618 281.63 14.7679 281.742 12.3741C281.845 10.1931 281.812 7.80608 282.877 5.78297C283.192 5.18566 283.609 4.68446 284.069 4.36406C284.646 3.96127 285.371 3.70266 286.111 3.65002C286.408 3.56535 286.72 3.51729 287.035 3.51729H287.225C287.3 3.515 287.378 3.51271 287.453 3.51729H288.777C290.212 3.46465 291.641 3.27012 293.078 3.25868C293.07 3.24494 293.065 3.22892 293.058 3.21519C296.854 3.08246 300.655 3.07559 304.454 3.19002C303.212 4.37092 302.282 5.79442 301.697 7.33234C300.85 9.55684 300.767 11.9232 300.658 14.2484C300.21 23.7162 299.813 33.2413 301.012 42.6794C301.605 47.3481 302.584 51.9939 304.134 56.4932C304.519 57.6078 305.026 59.1663 305.773 60.576C304.513 60.5783 303.254 60.5806 301.994 60.5852L301.992 60.5829ZM316.051 47.0872C315.787 49.2979 315.444 51.5018 315.034 53.6943C314.69 55.5458 314.457 57.5483 313.717 59.315C313.595 59.6103 313.453 59.9078 313.285 60.187C313.298 60.1595 313.19 60.3129 313.115 60.4204C313.095 60.4387 313.018 60.5326 312.955 60.6081C312.97 60.5509 312.675 60.7431 312.908 60.6653C312.37 60.8552 313.23 60.6333 312.645 60.7866C312.54 60.8141 312.428 60.8301 312.313 60.8369C312.201 60.8575 312.083 60.8713 311.953 60.8713C311.696 60.8713 311.473 60.8232 311.283 60.7431C311.093 60.6859 310.933 60.6012 310.801 60.4914C309.646 59.8643 308.974 58.5392 308.514 57.4842C306.79 53.5227 305.641 49.3254 304.866 45.1442C303.301 36.6948 303.247 28.092 303.534 19.5556C303.614 17.1595 303.724 14.7656 303.836 12.3718C303.939 10.1908 303.906 7.80379 304.971 5.78069C305.286 5.18337 305.703 4.68217 306.163 4.36177C306.845 3.88575 307.732 3.60883 308.607 3.63858C310.539 3.70724 312.405 4.04595 312.943 5.78297C313.15 6.4581 313.253 6.68467 313.445 7.45592C315.672 16.1388 316.799 25.0299 316.821 33.9324C316.831 38.3265 316.576 42.7206 316.051 47.0895V47.0872Z" fill="black"/>
<path d="M39.4021 33.7471C39.2622 33.7677 39.1372 33.7585 39.0248 33.7288C39.0248 33.7951 39.0248 33.8638 39.0248 33.9302C39.0348 38.3242 38.7774 42.7183 38.2476 47.0872C37.9802 49.2979 37.6353 51.5018 37.223 53.6943C36.8731 55.5457 36.6407 57.5483 35.896 59.315C35.7711 59.6103 35.6286 59.9078 35.4612 60.187C35.4737 60.1595 35.3662 60.3129 35.2912 60.4204C35.2713 60.4387 35.1938 60.5326 35.1288 60.6081C35.1438 60.5509 34.8464 60.7431 35.0813 60.6653C34.539 60.8552 35.4062 60.6333 34.8164 60.7866C34.7115 60.814 34.5965 60.8301 34.4816 60.8369C34.3691 60.8575 34.2492 60.8713 34.1192 60.8713C33.8593 60.8713 33.6344 60.8232 33.4445 60.7431C33.2545 60.6859 33.0896 60.6012 32.9572 60.4914C31.7926 59.8643 31.1154 58.5392 30.6506 57.4842C28.9137 53.5226 27.7517 49.3254 26.9695 45.1442C25.3926 36.6948 25.3376 28.092 25.6275 19.5556C25.7075 17.1595 25.8174 14.7656 25.9324 12.3718C26.0374 10.1908 26.0049 7.80379 27.077 5.78069C27.3943 5.18337 27.8167 4.68217 28.279 4.36177C28.9687 3.88575 29.8634 3.60883 30.743 3.63858C32.6923 3.70724 34.574 4.04595 35.1163 5.78297C35.3262 6.4581 35.4287 6.68467 35.6236 7.45592C37.5329 14.8389 38.6374 22.3706 38.9398 29.9343C40.0269 29.9274 41.114 29.9023 42.201 29.8588C42.0311 22.6635 41.1415 15.4842 39.5496 8.41941C39.4671 8.05782 39.3797 7.69851 39.2947 7.33921C39.2222 7.21333 39.1597 7.08517 39.1073 6.95244C39.0723 6.86318 38.7899 6.23382 38.8399 6.32308C38.7424 6.13084 38.6449 5.93631 38.5475 5.74407C38.3326 5.3161 38.1201 4.88814 37.9202 4.45331C37.8527 4.46704 37.7828 4.48535 37.7103 4.50824C37.5928 2.86733 36.2534 1.52851 34.534 0.885424C33.9643 0.672586 33.377 0.565023 32.7822 0.542137C32.7198 0.498654 32.6423 0.466614 32.5448 0.446017C32.3249 0.402534 32.1075 0.359051 31.8876 0.315568C31.8101 0.244623 31.6976 0.198851 31.5377 0.191985C24.9403 -0.107818 18.3204 -0.0574692 11.7255 0.349897C11.4706 0.365917 11.2207 0.450594 10.9832 0.578755C9.26641 0.368206 7.48211 0.919752 6.07016 1.80085C3.89601 3.15798 2.33912 5.12615 1.49195 7.33005C0.637284 9.55455 0.554816 11.9209 0.444859 14.2461C-0.00746387 23.714 -0.407308 33.239 0.80222 42.6794C1.39949 47.3481 2.3866 51.9939 3.95099 56.4932C4.96809 59.418 6.84486 65.4004 11.683 63.7022C18.043 63.6885 24.4055 63.6748 30.7655 63.661C31.7151 64.0913 32.8497 64.1508 34.2117 63.6107C38.8923 61.7524 39.6071 56.3902 40.3393 52.5134C41.2564 47.641 41.8512 42.7183 42.1011 37.7841C42.1711 36.3972 42.211 35.0081 42.226 33.6189C41.2839 33.6029 40.3443 33.612 39.4071 33.7471H39.4021ZM24.0731 60.5829C23.9132 60.631 23.7333 60.6561 23.5308 60.6539C21.6116 60.6195 19.6948 60.8095 17.7706 60.7843C15.7789 60.7568 13.7846 60.8461 11.7904 60.8461C11.4281 60.8461 11.1307 60.7546 10.9008 60.6058C9.59379 60.0382 8.85907 58.6079 8.36677 57.4865C6.62994 53.5249 5.4679 49.3277 4.6857 45.1465C3.10882 36.697 3.05384 28.0943 3.34373 19.5579C3.4237 17.1618 3.53365 14.7679 3.64861 12.3741C3.75357 10.1931 3.72108 7.80607 4.79316 5.78297C5.11054 5.18566 5.53287 4.68446 5.99519 4.36406C6.57746 3.96127 7.30718 3.70266 8.05439 3.65002C8.35677 3.56534 8.66915 3.51728 8.98652 3.51728H9.17645C9.25392 3.515 9.32889 3.51271 9.40636 3.51728H10.7408C12.1878 3.46465 13.6272 3.27012 15.0766 3.25868C15.0691 3.24494 15.0641 3.22892 15.0567 3.21519C18.8852 3.08246 22.7187 3.07559 26.5497 3.19002C25.2976 4.37092 24.358 5.79442 23.7682 7.33234C22.9136 9.55683 22.8311 11.9232 22.7212 14.2484C22.2713 23.7162 21.8715 33.2413 23.081 42.6794C23.6783 47.3481 24.6654 51.9939 26.2298 56.4932C26.6171 57.6078 27.1294 59.1663 27.8841 60.576C26.6146 60.5783 25.3426 60.5806 24.0731 60.5852V60.5829Z" fill="black"/>
<path d="M50.9202 28.8679C50.6653 26.6526 49.4058 25.4671 48.1888 25.8035C48.1713 25.8081 48.1538 25.8173 48.1363 25.8218C48.0888 25.8127 48.0389 25.8058 47.9814 25.8081C43.2857 26.0324 38.59 26.259 33.8919 26.4832C33.3821 26.2681 32.6773 27.4582 32.4349 27.9525C31.5928 29.6804 31.008 31.9804 31.2754 34.2827C31.4828 36.0701 32.1975 37.3379 33.1372 37.9971C33.2346 38.1573 33.3821 38.2534 33.597 38.2488C38.2477 38.1733 42.8984 38.1 47.549 38.0245C47.6165 38.0245 47.6865 38.0016 47.759 37.9604C47.9864 37.9353 48.2438 37.7453 48.4487 37.5279C49.4208 36.498 50.293 34.5985 50.5679 32.6029C50.9052 31.4288 51.0627 30.1289 50.9177 28.8656L50.9202 28.8679ZM34.894 33.3307C34.4117 33.0103 33.9943 32.326 33.7869 31.4929C33.7594 31.3785 33.7344 31.2641 33.7144 31.1474L46.7868 30.5203C46.8143 30.5271 46.8468 30.5294 46.8793 30.5317C46.9318 30.5066 46.9868 30.4928 47.0392 30.4951C47.0567 30.4951 47.0767 30.4974 47.0942 30.4974C47.2941 30.4676 47.4991 30.5203 47.689 30.6462C47.7365 30.669 47.784 30.6965 47.8289 30.7285C47.8939 30.7491 47.9564 30.7835 48.0089 30.8315C48.1213 30.9116 48.2088 31.0444 48.2713 31.2046C48.4937 31.4884 48.5761 32.0147 48.5137 32.477C48.5137 32.4885 48.5162 32.4999 48.5187 32.5091C48.5137 32.5159 48.5112 32.5228 48.5062 32.5297C48.4512 32.8775 48.3112 33.175 48.0913 33.2895C48.0863 33.3009 48.0813 33.3123 48.0763 33.3238C48.0513 33.3238 48.0239 33.3238 47.9989 33.3238C47.9639 33.3329 47.9289 33.3375 47.8914 33.3375C47.8589 33.3375 47.8264 33.3329 47.7964 33.3261C43.5606 33.3947 39.3248 33.4634 35.0889 33.5298C35.0364 33.4497 34.9715 33.381 34.894 33.3284V33.3307Z" fill="black"/>
</g>
<defs>
<clipPath id="clip0_400_4194">
<rect width="320" height="64" fill="white"/>
</clipPath>
</defs>
</svg>
