<svg width="254" height="44" viewBox="0 0 254 44" fill="none" xmlns="http://www.w3.org/2000/svg">
<path d="M24.8584 34C24.4744 34 24.2824 33.808 24.2824 33.424V11.088C24.2824 10.704 24.4744 10.512 24.8584 10.512H33.2744C36.6664 10.512 39.237 11.248 40.9864 12.72C42.7357 14.192 43.6104 16.432 43.6104 19.44C43.6104 22.4267 42.7357 24.6667 40.9864 26.16C39.237 27.632 36.6664 28.368 33.2744 28.368H31.4184V33.424C31.4184 33.808 31.2264 34 30.8424 34H24.8584ZM33.1464 16.272H31.4184V22.608H33.1464C34.0424 22.608 34.7784 22.384 35.3544 21.936C35.9517 21.488 36.2504 20.656 36.2504 19.44C36.2504 18.224 35.9517 17.392 35.3544 16.944C34.7784 16.496 34.0424 16.272 33.1464 16.272ZM47.3896 34C47.0056 34 46.8136 33.808 46.8136 33.424V11.088C46.8136 10.704 47.0056 10.512 47.3896 10.512H53.5336C53.9176 10.512 54.1096 10.704 54.1096 11.088V33.424C54.1096 33.808 53.9176 34 53.5336 34H47.3896ZM69.8039 34.448C67.3719 34.448 65.2385 33.936 63.4039 32.912C61.5905 31.8667 60.1719 30.4267 59.1479 28.592C58.1452 26.7573 57.6439 24.6453 57.6439 22.256C57.6439 20.464 57.9532 18.8213 58.5719 17.328C59.1905 15.8347 60.0439 14.544 61.1319 13.456C62.2412 12.368 63.5319 11.536 65.0039 10.96C66.4759 10.3627 68.0759 10.064 69.8039 10.064C72.4705 10.064 74.6785 10.6507 76.4279 11.824C78.1985 12.976 79.5212 14.64 80.3959 16.816C80.5452 17.2 80.4279 17.4453 80.0439 17.552L73.9639 19.152C73.6652 19.2373 73.4199 19.1413 73.2279 18.864C72.8225 18.2453 72.3319 17.808 71.7559 17.552C71.2012 17.2747 70.5399 17.136 69.7719 17.136C68.4705 17.136 67.3719 17.5947 66.4759 18.512C65.6012 19.408 65.1639 20.656 65.1639 22.256C65.1639 23.856 65.6119 25.1147 66.5079 26.032C67.4039 26.928 68.5025 27.376 69.8039 27.376C70.6999 27.376 71.4999 27.2053 72.2039 26.864C72.9292 26.5013 73.4732 25.84 73.8359 24.88C73.9639 24.5173 74.1985 24.3787 74.5399 24.464L80.5559 26.032C80.9399 26.1387 81.0892 26.352 81.0039 26.672C80.5345 28.1653 79.7665 29.4987 78.6999 30.672C77.6545 31.8453 76.3745 32.7733 74.8599 33.456C73.3452 34.1173 71.6599 34.448 69.8039 34.448ZM84.9521 34C84.5681 34 84.3761 33.808 84.3761 33.424V11.088C84.3761 10.704 84.5681 10.512 84.9521 10.512H91.0961C91.4801 10.512 91.6721 10.704 91.6721 11.088V18.896L97.8481 10.864C98.0401 10.6293 98.2748 10.512 98.5521 10.512H105.464C105.699 10.512 105.848 10.5867 105.912 10.736C105.997 10.864 105.955 11.024 105.784 11.216L98.8721 19.312L106.552 33.328C106.787 33.776 106.659 34 106.168 34H99.1601C98.8828 34 98.6588 33.8613 98.4881 33.584L93.9441 25.072L91.6721 27.728V33.424C91.6721 33.808 91.4801 34 91.0961 34H84.9521ZM116.14 34C115.756 34 115.564 33.808 115.564 33.424V11.088C115.564 10.704 115.756 10.512 116.14 10.512H125.324C127.414 10.512 129.068 10.7787 130.284 11.312C131.521 11.824 132.406 12.5493 132.94 13.488C133.494 14.4053 133.772 15.4827 133.772 16.72C133.772 17.808 133.484 18.7787 132.908 19.632C132.353 20.464 131.521 21.1147 130.412 21.584C131.926 21.9893 133.057 22.6827 133.804 23.664C134.572 24.624 134.956 25.7333 134.956 26.992C134.956 29.2747 134.156 31.0133 132.556 32.208C130.977 33.4027 128.417 34 124.876 34H116.14ZM125.164 15.952H122.54V19.728H125.164C125.569 19.728 125.942 19.5787 126.284 19.28C126.625 18.9813 126.796 18.5013 126.796 17.84C126.796 17.1573 126.625 16.6773 126.284 16.4C125.942 16.1013 125.569 15.952 125.164 15.952ZM125.42 24.496H122.54V28.56H125.42C125.996 28.56 126.486 28.4107 126.892 28.112C127.318 27.792 127.532 27.2693 127.532 26.544C127.532 25.8187 127.318 25.296 126.892 24.976C126.486 24.656 125.996 24.496 125.42 24.496ZM138.858 34C138.474 34 138.282 33.808 138.282 33.424V11.088C138.282 10.704 138.474 10.512 138.858 10.512H145.002C145.386 10.512 145.578 10.704 145.578 11.088V27.088H155.05C155.434 27.088 155.626 27.28 155.626 27.664V33.424C155.626 33.808 155.434 34 155.05 34H138.858ZM157.221 34C157.008 34 156.858 33.936 156.773 33.808C156.688 33.68 156.688 33.52 156.773 33.328L165.893 10.96C166.021 10.6613 166.245 10.512 166.565 10.512H171.429C171.749 10.512 171.973 10.6613 172.101 10.96L181.221 33.328C181.306 33.52 181.306 33.68 181.221 33.808C181.136 33.936 180.986 34 180.773 34H174.341C174 34 173.776 33.84 173.669 33.52L172.645 30.48H165.189L164.197 33.52C164.112 33.84 163.888 34 163.525 34H157.221ZM167.013 24.976H170.821L168.901 19.216L167.013 24.976ZM184.171 34C183.787 34 183.595 33.808 183.595 33.424V11.088C183.595 10.704 183.787 10.512 184.171 10.512H190.571C190.848 10.512 191.072 10.6507 191.243 10.928L197.963 22.896V11.088C197.963 10.704 198.155 10.512 198.539 10.512H204.363C204.747 10.512 204.939 10.704 204.939 11.088V33.424C204.939 33.808 204.747 34 204.363 34H197.963C197.664 34 197.44 33.8613 197.291 33.584L190.571 21.52V33.424C190.571 33.808 190.379 34 189.995 34H184.171ZM209.608 34C209.224 34 209.032 33.808 209.032 33.424V11.088C209.032 10.704 209.224 10.512 209.608 10.512H215.752C216.136 10.512 216.328 10.704 216.328 11.088V18.896L222.504 10.864C222.696 10.6293 222.931 10.512 223.208 10.512H230.12C230.355 10.512 230.504 10.5867 230.568 10.736C230.654 10.864 230.611 11.024 230.44 11.216L223.528 19.312L231.208 33.328C231.443 33.776 231.315 34 230.824 34H223.816C223.539 34 223.315 33.8613 223.144 33.584L218.6 25.072L216.328 27.728V33.424C216.328 33.808 216.136 34 215.752 34H209.608Z" fill="#1B1B1B"/>
<path d="M242.6 44C242.2 44 242 43.7972 242 43.3915V38.9915C242 38.5858 242.2 38.383 242.6 38.383H247.908V5.61702H242.6C242.2 5.61702 242 5.41418 242 5.00851V0.608514C242 0.20284 242.2 0 242.6 0H253.4C253.8 0 254 0.20284 254 0.608514V43.3915C254 43.7972 253.8 44 253.4 44H242.6Z" fill="black"/>
<path d="M0.600001 44C0.200001 44 0 43.7972 0 43.3915V0.608514C0 0.20284 0.200001 0 0.600001 0H11.4C11.8 0 12 0.20284 12 0.608514V5.00851C12 5.41418 11.8 5.61702 11.4 5.61702H6.09231V38.383H11.4C11.8 38.383 12 38.5858 12 38.9915V43.3915C12 43.7972 11.8 44 11.4 44H0.600001Z" fill="black"/>
</svg>
