<svg width="320" height="56" viewBox="0 0 320 56" fill="none" xmlns="http://www.w3.org/2000/svg">
<rect width="320" height="56" rx="12" fill="#1B1B1B"/>
<path d="M147.12 26.76H149.78V29.56H147.12V26.76ZM148.42 20C151.1 20 153.04 21.54 153.04 23.78C153.04 25.98 151.1 27.52 148.42 27.52C145.74 27.52 143.8 25.98 143.8 23.78C143.8 21.54 145.74 20 148.42 20ZM148.42 22C147.16 22 146.28 22.64 146.28 23.78C146.28 24.9 147.16 25.54 148.42 25.54C149.7 25.54 150.56 24.9 150.56 23.78C150.56 22.64 149.7 22 148.42 22ZM154.94 19.28H157.6V33.4H154.94V19.28ZM156.66 25.08H159.92V27.26H156.66V25.08ZM145.24 35.32H158.22V37.46H145.24V35.32ZM145.24 32.18H147.92V36.24H145.24V32.18ZM143.14 31L142.84 28.88C145.98 28.88 150.32 28.86 153.96 28.34L154.14 30.24C150.4 30.94 146.2 31 143.14 31ZM165.558 30.06H168.158V34.42H165.558V30.06ZM171.418 30.04H174.018V34.42H171.418V30.04ZM161.318 33.58H178.078V35.74H161.318V33.58ZM163.198 20.46H176.198V26.6H165.878V29.74H163.238V24.52H173.558V22.56H163.198V20.46ZM163.238 28.62H176.618V30.76H163.238V28.62Z" fill="white"/>
</svg>
