<svg width="214" height="53" viewBox="0 0 214 53" fill="none" xmlns="http://www.w3.org/2000/svg">
<path d="M26.3776 15.514H33.9896C34.1876 15.514 34.2756 15.624 34.2756 15.8V17.736C34.2756 17.89 34.1876 18 33.9896 18H15.9496C15.7736 18 15.6856 17.89 15.6856 17.736V15.8C15.6856 15.624 15.7736 15.514 15.9496 15.514H23.5836V12.676H18.6996C18.5016 12.676 18.4356 12.566 18.4356 12.412V6.472C18.4356 6.296 18.5016 6.164 18.6996 6.164H28.7096V4.382H18.6556C18.4796 4.382 18.3916 4.272 18.3916 4.074V2.27C18.3916 2.094 18.4796 1.984 18.6556 1.984H31.2396C31.4376 1.984 31.5256 2.094 31.5256 2.27V8.166C31.5256 8.32 31.4156 8.452 31.2176 8.452H21.2296V10.344H31.6796C31.8776 10.344 31.9876 10.432 31.9876 10.63V12.412C31.9876 12.566 31.8776 12.676 31.6796 12.676H26.3776V15.514ZM48.1095 4.756H37.9895C37.8135 4.756 37.7255 4.646 37.7255 4.492V2.556C37.7255 2.402 37.8135 2.292 37.9895 2.292H50.5955C50.7935 2.292 50.8815 2.402 50.8815 2.556V4.91C50.8815 7.66 50.5295 11.136 50.0235 13.314C49.9795 13.512 49.8255 13.578 49.6275 13.534L47.6035 13.248C47.4275 13.226 47.3835 13.006 47.4055 12.874C47.7795 10.916 48.1975 7.55 48.1315 5.46L48.1095 4.756ZM35.3715 15.404H53.4115C53.6095 15.404 53.6975 15.514 53.6975 15.69V17.626C53.6975 17.78 53.6095 17.89 53.4115 17.89H35.3715C35.1955 17.89 35.1075 17.78 35.1075 17.626V15.69C35.1075 15.514 35.1955 15.404 35.3715 15.404ZM71.1173 14.612H68.8953C68.6973 14.612 68.6093 14.524 68.6093 14.348V0.795999C68.6093 0.62 68.6973 0.51 68.8953 0.51H71.1173C71.3373 0.51 71.4253 0.62 71.4253 0.795999V14.348C71.4253 14.524 71.3373 14.612 71.1173 14.612ZM60.6673 11.202C57.5213 11.202 55.2993 9.156 55.2993 6.252C55.2993 3.37 57.5213 1.324 60.6673 1.324C63.8133 1.324 66.0353 3.37 66.0353 6.252C66.0353 9.156 63.8133 11.202 60.6673 11.202ZM60.6673 8.826C62.2073 8.826 63.2853 7.792 63.2853 6.252C63.2853 4.712 62.2073 3.678 60.6673 3.678C59.1273 3.678 58.0493 4.712 58.0493 6.252C58.0493 7.792 59.1273 8.826 60.6673 8.826ZM71.5573 19.65H58.9073C58.7093 19.65 58.6213 19.54 58.6213 19.364V13.094C58.6213 12.94 58.7093 12.83 58.9073 12.83H61.1513C61.3493 12.83 61.4373 12.94 61.4373 13.094V17.164H71.5573C71.7553 17.164 71.8433 17.252 71.8433 17.45V19.364C71.8433 19.54 71.7553 19.65 71.5573 19.65ZM94.7352 7.968H97.5292C97.7492 7.968 97.8372 8.078 97.8372 8.254V10.19C97.8372 10.344 97.7492 10.454 97.5292 10.454H94.7352V19.584C94.7352 19.76 94.6472 19.848 94.4272 19.848H92.1832C92.0072 19.848 91.9192 19.76 91.9192 19.584V0.795999C91.9192 0.62 92.0072 0.51 92.1832 0.51H94.4272C94.6472 0.51 94.7352 0.62 94.7352 0.795999V7.968ZM86.1332 3.634H90.2472C90.4452 3.634 90.5332 3.744 90.5332 3.92V5.79C90.5332 5.966 90.4452 6.076 90.2472 6.076H79.1812C78.9832 6.076 78.9172 5.966 78.9172 5.79V3.92C78.9172 3.744 78.9832 3.634 79.1812 3.634H83.3172V1.368C83.3172 1.214 83.4052 1.104 83.6252 1.104H85.8472C86.0452 1.104 86.1332 1.214 86.1332 1.368V3.634ZM84.7472 7.198C87.8492 7.198 89.8292 9.002 89.8292 11.928C89.8292 14.832 87.8492 16.614 84.7472 16.614C81.6672 16.614 79.7092 14.832 79.7092 11.928C79.7092 9.002 81.6672 7.198 84.7472 7.198ZM84.7692 14.304C86.2212 14.304 87.0792 13.292 87.0792 11.928C87.0792 10.52 86.2212 9.508 84.7692 9.508C83.3172 9.508 82.4592 10.52 82.4592 11.928C82.4592 13.292 83.3172 14.304 84.7692 14.304ZM108.921 9.706V10.894C108.921 11.07 108.855 11.18 108.657 11.18H99.5491C99.3511 11.18 99.2631 11.07 99.2631 10.894V2.138C99.2631 1.94 99.3511 1.852 99.5491 1.852H108.657C108.855 1.852 108.921 1.94 108.921 2.138V3.128H112.287V0.795999C112.287 0.62 112.375 0.51 112.573 0.51H114.795C115.015 0.51 115.103 0.62 115.103 0.795999V14.348C115.103 14.524 115.015 14.612 114.795 14.612H112.573C112.375 14.612 112.287 14.524 112.287 14.348V9.706H108.921ZM102.013 8.804H106.215V4.228H102.013V8.804ZM112.287 7.308V5.526H108.921V7.308H112.287ZM105.313 17.164H115.235C115.433 17.164 115.521 17.252 115.521 17.45V19.364C115.521 19.54 115.433 19.65 115.235 19.65H102.805C102.585 19.65 102.519 19.54 102.519 19.364V13.204C102.519 13.028 102.585 12.94 102.805 12.94H104.939C105.137 12.94 105.313 13.028 105.313 13.204V17.164ZM127.413 8.034C126.599 9.134 125.477 10.124 124.091 11.004C123.915 11.114 123.717 11.136 123.629 10.982L122.397 9.464C122.287 9.31 122.265 9.134 122.419 9.024C124.597 7.682 125.939 6.296 126.027 4.646H123.145C122.925 4.646 122.837 4.536 122.837 4.382V2.534C122.837 2.38 122.925 2.27 123.145 2.27H126.027V0.421999C126.027 0.267999 126.115 0.157999 126.313 0.157999H128.491C128.689 0.157999 128.777 0.267999 128.777 0.421999V2.27H131.461C131.659 2.27 131.747 2.38 131.747 2.534V4.382C131.747 4.536 131.659 4.646 131.461 4.646H128.777C128.843 6.23 130.053 7.484 132.077 8.65C132.231 8.76 132.187 8.892 132.099 9.068L131.021 10.63C130.911 10.784 130.713 10.784 130.537 10.674C129.305 9.948 128.249 9.09 127.413 8.034ZM135.355 10.542H133.177C133.001 10.542 132.913 10.432 132.913 10.278V0.993999C132.913 0.839999 133.001 0.729999 133.177 0.729999H135.355C135.553 0.729999 135.641 0.839999 135.641 0.993999V4.712H137.313V0.795999C137.313 0.62 137.401 0.51 137.577 0.51H139.799C139.997 0.51 140.063 0.62 140.063 0.795999V10.278C140.063 10.432 139.997 10.542 139.799 10.542H137.577C137.401 10.542 137.313 10.432 137.313 10.278V7.198H135.641V10.278C135.641 10.432 135.553 10.542 135.355 10.542ZM129.019 17.67H140.305C140.503 17.67 140.591 17.758 140.591 17.956V19.65C140.591 19.826 140.503 19.914 140.305 19.914H126.533C126.335 19.914 126.269 19.826 126.269 19.65V14.832C126.269 14.656 126.335 14.546 126.533 14.546H137.313V13.622H126.489C126.313 13.622 126.225 13.512 126.225 13.336V11.686C126.225 11.51 126.313 11.4 126.489 11.4H139.799C139.997 11.4 140.063 11.51 140.063 11.686V16.438C140.063 16.614 139.975 16.724 139.777 16.724H129.019V17.67ZM158.473 14.612H156.251C156.053 14.612 155.965 14.524 155.965 14.348V0.795999C155.965 0.62 156.053 0.51 156.251 0.51H158.473C158.693 0.51 158.781 0.62 158.781 0.795999V14.348C158.781 14.524 158.693 14.612 158.473 14.612ZM147.517 12.104H143.315C143.117 12.104 143.051 11.994 143.051 11.84V6.054C143.051 5.878 143.117 5.746 143.315 5.746H150.135V3.964H143.271C143.095 3.964 143.007 3.854 143.007 3.656V2.006C143.007 1.852 143.095 1.742 143.271 1.742H152.665C152.863 1.742 152.951 1.852 152.951 2.006V7.616C152.951 7.77 152.841 7.902 152.643 7.902H145.845V9.882H147.935C149.607 9.882 151.851 9.772 153.611 9.42C153.787 9.376 153.919 9.464 153.963 9.684L154.183 11.202C154.205 11.378 154.183 11.466 153.963 11.532C152.247 11.928 149.717 12.104 147.517 12.104ZM158.913 19.65H146.263C146.065 19.65 145.977 19.54 145.977 19.364V13.732C145.977 13.556 146.065 13.468 146.263 13.468H148.507C148.705 13.468 148.793 13.556 148.793 13.732V17.164H158.913C159.111 17.164 159.199 17.252 159.199 17.45V19.364C159.199 19.54 159.111 19.65 158.913 19.65ZM175.673 0.51H177.895C178.115 0.51 178.203 0.62 178.203 0.795999V19.584C178.203 19.76 178.115 19.848 177.895 19.848H175.673C175.475 19.848 175.387 19.76 175.387 19.584V0.795999C175.387 0.62 175.475 0.51 175.673 0.51ZM173.605 13.358C173.781 13.49 173.759 13.666 173.627 13.798L172.307 15.338C172.175 15.47 172.021 15.47 171.845 15.338C169.997 13.842 168.523 12.192 167.775 10.696C166.961 12.324 165.421 14.172 163.507 15.646C163.331 15.778 163.155 15.778 163.045 15.646L161.703 14.106C161.571 13.996 161.571 13.776 161.725 13.666C164.365 11.554 166.301 8.914 166.301 5.35V5.02H162.539C162.341 5.02 162.253 4.91 162.253 4.734V2.798C162.253 2.622 162.341 2.512 162.539 2.512H172.615C172.835 2.512 172.923 2.622 172.923 2.798V4.734C172.923 4.91 172.835 5.02 172.615 5.02H169.095V5.35C169.095 8.804 171.229 11.444 173.605 13.358ZM195.843 0.51H198.065C198.263 0.51 198.329 0.62 198.329 0.795999V19.584C198.329 19.76 198.263 19.848 198.065 19.848H195.843C195.667 19.848 195.579 19.76 195.579 19.584V0.795999C195.579 0.62 195.667 0.51 195.843 0.51ZM191.553 0.927999H193.731C193.929 0.927999 194.017 1.038 194.017 1.214V18.99C194.017 19.166 193.929 19.276 193.731 19.276H191.553C191.377 19.276 191.289 19.166 191.289 18.99V9.816H189.617C189.375 13.402 187.747 15.382 185.151 15.382C182.357 15.382 180.685 13.05 180.685 8.87C180.685 4.69 182.357 2.38 185.151 2.38C187.593 2.38 189.177 4.118 189.551 7.308H191.289V1.214C191.289 1.038 191.377 0.927999 191.553 0.927999ZM185.151 12.896C186.383 12.896 186.911 11.576 186.911 8.87C186.911 6.164 186.383 4.866 185.151 4.866C183.941 4.866 183.435 6.164 183.435 8.87C183.435 11.576 183.941 12.896 185.151 12.896ZM2.94423 43.884L2.10823 42.124C2.04223 41.97 2.08623 41.816 2.26223 41.772C5.95823 40.496 8.57623 37.966 8.57623 35.92V34.138C8.57623 33.962 8.66423 33.874 8.84023 33.874H11.1282C11.3262 33.874 11.4142 33.962 11.4142 34.138V35.92C11.4142 37.966 14.0322 40.496 17.7282 41.772C17.8822 41.816 17.9262 41.97 17.8602 42.124L17.0462 43.884C16.9802 44.038 16.8482 44.104 16.6942 44.06C13.5922 43.114 11.1282 41.266 9.98423 39.572C8.84023 41.266 6.37623 43.114 3.29623 44.06C3.12023 44.104 2.98823 44.038 2.94423 43.884ZM0.964227 47.514H19.0042C19.2022 47.514 19.2902 47.624 19.2902 47.8V49.736C19.2902 49.89 19.2022 50 19.0042 50H0.964227C0.788227 50 0.700227 49.89 0.700227 49.736V47.8C0.700227 47.624 0.788227 47.514 0.964227 47.514ZM35.2361 32.51H37.4581C37.6561 32.51 37.7221 32.62 37.7221 32.796V43.268C37.7221 43.422 37.6561 43.532 37.4581 43.532H35.2361C35.0601 43.532 34.9721 43.422 34.9721 43.268V39.198H33.1901V43.268C33.1901 43.422 33.1021 43.532 32.9261 43.532H30.7481C30.5501 43.532 30.4621 43.422 30.4621 43.268V32.994C30.4621 32.84 30.5501 32.73 30.7481 32.73H32.9261C33.1021 32.73 33.1901 32.84 33.1901 32.994V36.712H34.9721V32.796C34.9721 32.62 35.0601 32.51 35.2361 32.51ZM29.3841 40.804L29.6261 42.432C29.6481 42.608 29.6041 42.674 29.3841 42.718C28.0421 42.982 25.6661 43.158 23.9281 43.158H20.8261C20.6281 43.158 20.5401 43.048 20.5401 42.872V33.698C20.5401 33.522 20.6281 33.412 20.8261 33.412H28.1961C28.3721 33.412 28.4601 33.522 28.4601 33.698V35.37C28.4601 35.524 28.3721 35.634 28.1961 35.634H23.3121V37.108H27.9761C28.1961 37.108 28.2401 37.196 28.2401 37.394V38.978C28.2401 39.154 28.1961 39.22 27.9761 39.22H23.3121V40.936H24.2361C25.5781 40.936 27.6461 40.782 29.0321 40.562C29.2301 40.518 29.3401 40.606 29.3841 40.804ZM24.4121 44.5H37.4581C37.6561 44.5 37.7221 44.61 37.7221 44.786V51.562C37.7221 51.738 37.6561 51.848 37.4581 51.848H24.4121C24.1921 51.848 24.1041 51.738 24.1041 51.562V44.786C24.1041 44.61 24.1921 44.5 24.4121 44.5ZM26.8981 49.45H34.9501V46.876H26.8981V49.45ZM55.648 44.214H42.008C41.81 44.214 41.722 44.104 41.722 43.928V42.014C41.722 41.838 41.81 41.75 42.008 41.75H44.186V36.536H42.118C41.898 36.536 41.81 36.448 41.81 36.272V34.358C41.81 34.182 41.898 34.072 42.118 34.072H55.538C55.758 34.072 55.846 34.182 55.846 34.358V36.272C55.846 36.448 55.758 36.536 55.538 36.536H53.448V41.75H55.648C55.868 41.75 55.956 41.838 55.956 42.014V43.928C55.956 44.104 55.868 44.214 55.648 44.214ZM50.698 36.536H46.958V41.75H50.698V36.536ZM39.808 47.514H57.848C58.046 47.514 58.134 47.624 58.134 47.8V49.736C58.134 49.89 58.046 50 57.848 50H39.808C39.632 50 39.544 49.89 39.544 49.736V47.8C39.544 47.624 39.632 47.514 39.808 47.514ZM74.8499 40.452H62.1119C61.9139 40.452 61.8259 40.342 61.8259 40.188V35.92C61.8259 35.744 61.9139 35.612 62.1119 35.612H71.9019V34.864H62.0679C61.8699 34.864 61.7819 34.754 61.7819 34.556V33.06C61.7819 32.884 61.8699 32.796 62.0679 32.796H74.4099C74.5859 32.796 74.6739 32.884 74.6739 33.06V37.328C74.6739 37.504 74.5639 37.614 74.3879 37.614H64.5979V38.428H74.8499C75.0259 38.428 75.1359 38.538 75.1359 38.714V40.188C75.1359 40.342 75.0259 40.452 74.8499 40.452ZM77.2699 43.488H59.2299C59.0539 43.488 58.9659 43.4 58.9659 43.224V41.64C58.9659 41.464 59.0539 41.354 59.2299 41.354H77.2699C77.4679 41.354 77.5559 41.464 77.5559 41.64V43.224C77.5559 43.4 77.4679 43.488 77.2699 43.488ZM75.1799 52.178H61.8919C61.7159 52.178 61.6279 52.068 61.6279 51.892V47.58C61.6279 47.404 61.7159 47.272 61.8919 47.272H72.1219V46.524H61.8479C61.6719 46.524 61.5839 46.414 61.5839 46.216V44.764C61.5839 44.588 61.6719 44.478 61.8479 44.478H74.6079C74.8059 44.478 74.8939 44.588 74.8939 44.764V48.988C74.8939 49.164 74.7839 49.274 74.5859 49.274H64.3999V50.11H75.1799C75.3779 50.11 75.4879 50.22 75.4879 50.396V51.892C75.4879 52.068 75.3779 52.178 75.1799 52.178ZM97.8957 32.51H100.03C100.25 32.51 100.316 32.62 100.316 32.796V42.982C100.316 43.158 100.25 43.268 100.03 43.268H97.8957C97.6977 43.268 97.6317 43.158 97.6317 42.982V32.796C97.6317 32.62 97.6977 32.51 97.8957 32.51ZM89.9977 42.828C89.1397 42.08 88.2377 40.98 87.6657 39.968C87.0937 41.2 86.2137 42.52 85.3777 43.356C85.2237 43.488 85.0257 43.422 84.9157 43.312L83.5517 42.124C83.4197 41.992 83.4197 41.838 83.5737 41.706C85.2237 39.924 86.1257 37.482 86.2357 36.03H84.3217C84.1017 36.03 83.9697 35.942 83.9697 35.766V33.962C83.9697 33.808 84.1017 33.698 84.3217 33.698H95.8717C96.0697 33.698 96.1577 33.808 96.1577 33.962V35.766C96.1577 35.942 96.0697 36.03 95.8717 36.03H94.2217C94.3317 37.46 95.2337 39.77 96.6637 41.332C96.8397 41.508 96.8397 41.64 96.6857 41.772L95.3437 42.938C95.1897 43.07 95.0137 43.136 94.8817 42.982C94.1337 42.3 93.3417 41.09 92.8137 39.946C92.2417 40.98 91.3177 42.058 90.4597 42.828C90.3057 42.938 90.1297 42.916 89.9977 42.828ZM91.5377 36.03H88.9197C88.9857 37.218 89.4917 38.582 90.2397 39.572C90.9877 38.582 91.4717 37.218 91.5377 36.03ZM86.6757 44.236H100.052C100.25 44.236 100.316 44.346 100.316 44.5V51.782C100.316 51.936 100.25 52.046 100.052 52.046H97.8297C97.6317 52.046 97.5437 51.936 97.5437 51.782V46.678H86.6757C86.4997 46.678 86.4117 46.568 86.4117 46.414V44.5C86.4117 44.346 86.4997 44.236 86.6757 44.236ZM111.906 39.66C107.858 39.66 105.658 38.318 105.658 36.184C105.658 34.05 107.858 32.752 111.906 32.752C115.976 32.752 118.154 34.05 118.154 36.184C118.154 38.318 115.976 39.66 111.906 39.66ZM111.906 37.394C114.37 37.394 115.382 36.866 115.382 36.184C115.382 35.48 114.37 34.974 111.906 34.974C109.486 34.974 108.452 35.48 108.452 36.184C108.452 36.866 109.486 37.394 111.906 37.394ZM120.948 42.784H102.908C102.732 42.784 102.644 42.674 102.644 42.498V40.782C102.644 40.628 102.732 40.496 102.908 40.496H120.948C121.146 40.496 121.234 40.628 121.234 40.782V42.498C121.234 42.674 121.146 42.784 120.948 42.784ZM118.858 52.046H105.57C105.394 52.046 105.306 51.936 105.306 51.782V47.096C105.306 46.942 105.394 46.81 105.57 46.81H115.8V46.04H105.526C105.35 46.04 105.262 45.952 105.262 45.754V44.148C105.262 43.972 105.35 43.884 105.526 43.884H118.286C118.484 43.884 118.572 43.972 118.572 44.148V48.68C118.572 48.856 118.462 48.966 118.264 48.966H108.078V49.824H118.858C119.056 49.824 119.166 49.934 119.166 50.132V51.782C119.166 51.936 119.056 52.046 118.858 52.046ZM129.055 41.574L128.329 39.704C128.263 39.572 128.307 39.396 128.483 39.352C132.289 38.384 134.775 36.492 134.775 34.798V33.302C134.775 33.126 134.863 33.016 135.039 33.016H137.327C137.525 33.016 137.613 33.126 137.613 33.302V34.798C137.613 36.492 140.099 38.384 143.905 39.352C144.059 39.396 144.103 39.572 144.037 39.704L143.333 41.574C143.245 41.75 143.135 41.816 142.959 41.772C139.923 40.98 137.393 39.55 136.183 38.274C134.995 39.55 132.465 40.98 129.407 41.772C129.231 41.816 129.143 41.75 129.055 41.574ZM127.163 43.444H145.203C145.401 43.444 145.489 43.554 145.489 43.752V45.666C145.489 45.842 145.401 45.952 145.203 45.952H137.591V51.584C137.591 51.76 137.481 51.848 137.283 51.848H135.061C134.885 51.848 134.797 51.76 134.797 51.584V45.952H127.163C126.987 45.952 126.899 45.842 126.899 45.666V43.752C126.899 43.554 126.987 43.444 127.163 43.444ZM167.743 43.224H165.521C165.323 43.224 165.235 43.114 165.235 42.938V32.796C165.235 32.62 165.323 32.51 165.521 32.51H167.743C167.963 32.51 168.051 32.62 168.051 32.796V42.938C168.051 43.114 167.963 43.224 167.743 43.224ZM157.337 42.674C154.191 42.674 151.925 40.738 151.925 37.944C151.925 35.172 154.191 33.214 157.337 33.214C160.483 33.214 162.749 35.172 162.749 37.944C162.749 40.738 160.483 42.674 157.337 42.674ZM157.337 35.568C155.863 35.568 154.675 36.536 154.675 37.944C154.675 39.33 155.863 40.298 157.337 40.298C158.811 40.298 159.999 39.33 159.999 37.944C159.999 36.536 158.811 35.568 157.337 35.568ZM169.393 49.846C169.569 49.956 169.547 50.154 169.415 50.264L168.183 51.848C168.051 51.98 167.875 51.958 167.699 51.848C166.313 50.836 165.301 49.692 164.729 48.504C164.091 49.692 162.991 50.902 161.451 51.958C161.297 52.09 161.143 52.09 160.967 51.98C159.449 50.924 158.371 49.692 157.777 48.592C157.227 49.692 156.325 50.77 154.785 51.958C154.587 52.112 154.455 52.09 154.323 51.958L152.981 50.44C152.871 50.308 152.871 50.11 153.003 50C155.203 48.438 156.391 46.81 156.391 44.984V44.456C156.391 44.302 156.479 44.192 156.655 44.192H158.833C159.031 44.192 159.119 44.302 159.119 44.456V44.984C159.119 46.568 159.933 47.778 161.209 48.944C162.485 47.844 163.343 46.568 163.343 44.984V44.412C163.343 44.236 163.431 44.126 163.607 44.126H165.763C165.961 44.126 166.049 44.236 166.049 44.412V44.984C166.049 46.7 167.347 48.372 169.393 49.846ZM184.943 32.51H187.165C187.385 32.51 187.473 32.62 187.473 32.796V51.584C187.473 51.76 187.385 51.848 187.165 51.848H184.943C184.745 51.848 184.657 51.76 184.657 51.584V42.014H182.127C181.753 45.622 179.619 47.514 176.693 47.514C173.459 47.514 171.215 45.204 171.215 40.826C171.215 36.47 173.459 34.16 176.693 34.16C179.619 34.16 181.731 36.008 182.127 39.528H184.657V32.796C184.657 32.62 184.745 32.51 184.943 32.51ZM176.693 45.006C178.321 45.006 179.399 43.62 179.399 40.826C179.399 38.054 178.321 36.646 176.693 36.646C175.065 36.646 173.987 38.054 173.987 40.826C173.987 43.62 175.065 45.006 176.693 45.006ZM204.211 47.514H208.303C208.501 47.514 208.589 47.624 208.589 47.8V49.736C208.589 49.89 208.501 50 208.303 50H190.263C190.087 50 189.999 49.89 189.999 49.736V47.8C189.999 47.624 190.087 47.514 190.263 47.514H194.377V42.938C193.079 42.08 192.265 40.76 192.265 38.978C192.265 35.436 195.477 33.764 199.283 33.764C203.089 33.764 206.323 35.436 206.323 38.978C206.323 40.76 205.509 42.058 204.211 42.916V47.514ZM199.283 36.228C196.863 36.228 195.059 37.064 195.059 38.978C195.059 40.87 196.863 41.728 199.283 41.728C201.725 41.728 203.507 40.848 203.507 38.978C203.507 37.064 201.725 36.228 199.283 36.228ZM197.171 43.994V47.514H201.395V44.016C200.735 44.126 200.009 44.192 199.283 44.192C198.557 44.192 197.831 44.126 197.171 43.994ZM212.743 45.512H210.895C210.719 45.512 210.609 45.424 210.609 45.226L210.389 33.786C210.389 33.61 210.499 33.5 210.675 33.5H212.963C213.139 33.5 213.249 33.61 213.249 33.786L213.029 45.226C213.029 45.424 212.919 45.512 212.743 45.512ZM211.863 50.638C210.851 50.638 210.081 49.912 210.081 48.9C210.081 47.888 210.851 47.162 211.863 47.162C212.875 47.162 213.645 47.888 213.645 48.9C213.645 49.912 212.875 50.638 211.863 50.638Z" fill="#202020"/>
</svg>
