<svg width="35" height="37" viewBox="0 0 35 37" fill="none" xmlns="http://www.w3.org/2000/svg">
<path d="M22.3154 11.5243C30.8525 -2.42998 5.24127 -2.42998 13.7783 11.5243C5.24127 -2.4332 -7.56433 18.5015 9.50981 18.5015C-7.56433 18.5015 5.24127 39.4329 13.7783 25.4786C5.24127 39.4329 30.8525 39.4329 22.3154 25.4786C30.8525 39.4329 43.6581 18.5015 26.5839 18.5015C43.6581 18.5015 30.8525 -2.42998 22.3154 11.5243Z" fill="white"/>
<path fill-rule="evenodd" clip-rule="evenodd" d="M21.1486 11.0341C23.1995 7.5787 23.0995 5.16789 22.2075 3.66499C21.3012 2.13803 19.4462 1.31849 17.5 1.31849C15.5538 1.31849 13.6988 2.13803 12.7925 3.66499C11.9005 5.16789 11.8005 7.5787 13.8514 11.0341C13.8514 11.0341 13.8514 11.0341 13.8514 11.0341C14.0385 11.3494 13.9274 11.7526 13.6033 11.9346C13.2792 12.1167 12.8647 12.0086 12.6776 11.6933C12.6776 11.6933 12.6776 11.6933 12.6776 11.6933C10.6267 8.23704 8.4304 7.11547 6.64642 7.11534C4.83391 7.11521 3.17677 8.26827 2.20369 9.90799C1.2306 11.5477 1.03266 13.5206 1.93897 15.0478C2.831 16.551 4.92733 17.8408 9.02895 17.8408C9.40322 17.8408 9.70663 18.1359 9.70663 18.5C9.70663 18.8641 9.40322 19.1592 9.02895 19.1592C4.92728 19.1592 2.83095 20.4488 1.93895 21.9518C1.03267 23.4787 1.2306 25.4513 2.20367 27.0908C3.17674 28.7302 4.8339 29.8833 6.64647 29.8833C8.4305 29.8833 10.6268 28.762 12.6776 25.3067C12.8647 24.9914 13.2792 24.8833 13.6033 25.0654C13.9275 25.2474 14.0385 25.6506 13.8514 25.9659C11.8005 29.4213 11.9005 31.8321 12.7925 33.335C13.6988 34.862 15.5538 35.6815 17.5 35.6815C19.4462 35.6815 21.3012 34.862 22.2075 33.335C23.0995 31.8321 23.1995 29.4213 21.1486 25.9659C20.9615 25.6506 21.0725 25.2474 21.3967 25.0654C21.7208 24.8833 22.1353 24.9914 22.3224 25.3067C24.3732 28.762 26.5695 29.8833 28.3535 29.8833C30.1661 29.8833 31.8233 28.7302 32.7963 27.0908C33.7694 25.4513 33.9673 23.4787 33.0611 21.9518C32.169 20.4488 30.0727 19.1592 25.971 19.1592C25.5968 19.1592 25.2934 18.8641 25.2934 18.5C25.2934 18.1359 25.5968 17.8408 25.971 17.8408C30.0727 17.8408 32.169 16.5512 33.0611 15.0482C33.9673 13.5213 33.7694 11.5487 32.7963 9.90925C31.8233 8.26975 30.1661 7.11673 28.3535 7.11673C26.5695 7.11673 24.3732 8.23796 22.3224 11.6933C22.1353 12.0086 21.7208 12.1167 21.3967 11.9346C21.0725 11.7526 20.9615 11.3494 21.1486 11.0341ZM30.5315 18.5C32.2981 19.1014 33.5152 20.08 34.2348 21.2925C35.4463 23.3337 35.1148 25.8214 33.9701 27.75C32.8254 29.6787 30.7765 31.2018 28.3535 31.2018C26.9142 31.2018 25.4344 30.6658 24.0157 29.4781C24.3637 31.2671 24.101 32.7817 23.3813 33.9943C22.1698 36.0355 19.7894 37 17.5 37C15.2106 37 12.8302 36.0355 11.6187 33.9943C10.899 32.7817 10.6363 31.2671 10.9843 29.4781C9.56558 30.6657 8.08582 31.2018 6.64647 31.2018C4.22351 31.2018 2.17459 29.6787 1.02989 27.75C-0.114798 25.8214 -0.446316 23.3337 0.765173 21.2925C1.48486 20.0799 2.70197 19.1013 4.46868 18.5C2.70194 17.8985 1.48484 16.9197 0.765151 15.707C-0.446299 13.6656 -0.114803 11.1776 1.02988 9.24879C2.17455 7.31993 4.2235 5.79668 6.64652 5.79686C8.08581 5.79696 9.56547 6.33312 10.9841 7.5209C10.6364 5.73234 10.8992 4.21807 11.6187 3.00573C12.8302 0.964534 15.2106 0 17.5 0C19.7894 0 22.1698 0.964534 23.3813 3.00573C24.101 4.21829 24.3637 5.7329 24.0157 7.52188C25.4344 6.33426 26.9142 5.79825 28.3535 5.79825C30.7765 5.79825 32.8254 7.32134 33.9701 9.24999C35.1148 11.1786 35.4463 13.6663 34.2348 15.7075C33.5152 16.9201 32.2981 17.8986 30.5315 18.5Z" fill="#202020"/>
</svg>
