<svg width="254" height="44" viewBox="0 0 254 44" fill="none" xmlns="http://www.w3.org/2000/svg">
<path d="M25.0146 34C24.6306 34 24.4386 33.808 24.4386 33.424V11.088C24.4386 10.704 24.6306 10.512 25.0146 10.512H33.4306C36.8226 10.512 39.3933 11.248 41.1426 12.72C42.892 14.192 43.7666 16.432 43.7666 19.44C43.7666 22.4267 42.892 24.6667 41.1426 26.16C39.3933 27.632 36.8226 28.368 33.4306 28.368H31.5746V33.424C31.5746 33.808 31.3826 34 30.9986 34H25.0146ZM33.3026 16.272H31.5746V22.608H33.3026C34.1986 22.608 34.9346 22.384 35.5106 21.936C36.108 21.488 36.4066 20.656 36.4066 19.44C36.4066 18.224 36.108 17.392 35.5106 16.944C34.9346 16.496 34.1986 16.272 33.3026 16.272ZM47.5459 34C47.1619 34 46.9699 33.808 46.9699 33.424V11.088C46.9699 10.704 47.1619 10.512 47.5459 10.512H53.6899C54.0739 10.512 54.2659 10.704 54.2659 11.088V33.424C54.2659 33.808 54.0739 34 53.6899 34H47.5459ZM69.9601 34.448C67.5281 34.448 65.3948 33.936 63.5601 32.912C61.7468 31.8667 60.3281 30.4267 59.3041 28.592C58.3015 26.7573 57.8001 24.6453 57.8001 22.256C57.8001 20.464 58.1095 18.8213 58.7281 17.328C59.3468 15.8347 60.2001 14.544 61.2881 13.456C62.3975 12.368 63.6881 11.536 65.1601 10.96C66.6321 10.3627 68.2321 10.064 69.9601 10.064C72.6268 10.064 74.8348 10.6507 76.5841 11.824C78.3548 12.976 79.6775 14.64 80.5521 16.816C80.7015 17.2 80.5841 17.4453 80.2001 17.552L74.1201 19.152C73.8215 19.2373 73.5761 19.1413 73.3841 18.864C72.9788 18.2453 72.4881 17.808 71.9121 17.552C71.3575 17.2747 70.6961 17.136 69.9281 17.136C68.6268 17.136 67.5281 17.5947 66.6321 18.512C65.7575 19.408 65.3201 20.656 65.3201 22.256C65.3201 23.856 65.7681 25.1147 66.6641 26.032C67.5601 26.928 68.6588 27.376 69.9601 27.376C70.8561 27.376 71.6561 27.2053 72.3601 26.864C73.0855 26.5013 73.6295 25.84 73.9921 24.88C74.1201 24.5173 74.3548 24.3787 74.6961 24.464L80.7121 26.032C81.0961 26.1387 81.2455 26.352 81.1601 26.672C80.6908 28.1653 79.9228 29.4987 78.8561 30.672C77.8108 31.8453 76.5308 32.7733 75.0161 33.456C73.5015 34.1173 71.8161 34.448 69.9601 34.448ZM85.1084 34C84.7244 34 84.5324 33.808 84.5324 33.424V11.088C84.5324 10.704 84.7244 10.512 85.1084 10.512H91.2524C91.6364 10.512 91.8284 10.704 91.8284 11.088V18.896L98.0044 10.864C98.1964 10.6293 98.431 10.512 98.7084 10.512H105.62C105.855 10.512 106.004 10.5867 106.068 10.736C106.154 10.864 106.111 11.024 105.94 11.216L99.0284 19.312L106.708 33.328C106.943 33.776 106.815 34 106.324 34H99.3164C99.039 34 98.815 33.8613 98.6444 33.584L94.1004 25.072L91.8284 27.728V33.424C91.8284 33.808 91.6364 34 91.2524 34H85.1084ZM123.496 34.448C121.256 34.448 119.315 33.904 117.672 32.816C116.029 31.728 114.867 30.1813 114.184 28.176C114.056 27.792 114.184 27.5467 114.568 27.44L119.944 26.096C120.285 26.032 120.52 26.16 120.648 26.48C120.968 27.184 121.384 27.6747 121.896 27.952C122.429 28.2293 123.069 28.368 123.816 28.368C124.307 28.368 124.701 28.2933 125 28.144C125.299 27.9733 125.448 27.7493 125.448 27.472C125.448 27.1093 125.256 26.8213 124.872 26.608C124.509 26.3733 123.923 26.1173 123.112 25.84L120.424 24.88C118.696 24.2613 117.309 23.3547 116.264 22.16C115.219 20.944 114.696 19.44 114.696 17.648C114.696 16.1547 115.091 14.8427 115.88 13.712C116.691 12.56 117.768 11.664 119.112 11.024C120.456 10.384 121.928 10.064 123.528 10.064C125.491 10.064 127.24 10.5333 128.776 11.472C130.333 12.3893 131.475 13.872 132.2 15.92C132.328 16.304 132.2 16.5493 131.816 16.656L126.248 18.192C125.885 18.2987 125.64 18.1707 125.512 17.808C125.192 17.104 124.851 16.656 124.488 16.464C124.125 16.2507 123.763 16.144 123.4 16.144C123.059 16.144 122.749 16.2293 122.472 16.4C122.195 16.5707 122.056 16.8267 122.056 17.168C122.056 17.4453 122.237 17.7227 122.6 18C122.984 18.256 123.709 18.5653 124.776 18.928L126.6 19.536C128.648 20.2187 130.184 21.1467 131.208 22.32C132.232 23.472 132.744 25.0187 132.744 26.96C132.744 28.4107 132.349 29.7013 131.56 30.832C130.771 31.9627 129.683 32.848 128.296 33.488C126.909 34.128 125.309 34.448 123.496 34.448ZM141.617 34C141.233 34 141.041 33.808 141.041 33.424V17.36H134.705C134.321 17.36 134.129 17.168 134.129 16.784V11.088C134.129 10.704 134.321 10.512 134.705 10.512H154.673C155.057 10.512 155.249 10.704 155.249 11.088V16.784C155.249 17.168 155.057 17.36 154.673 17.36H148.337V33.424C148.337 33.808 148.145 34 147.761 34H141.617ZM153.315 34C153.102 34 152.952 33.936 152.867 33.808C152.782 33.68 152.782 33.52 152.867 33.328L161.987 10.96C162.115 10.6613 162.339 10.512 162.659 10.512H167.523C167.843 10.512 168.067 10.6613 168.195 10.96L177.315 33.328C177.4 33.52 177.4 33.68 177.315 33.808C177.23 33.936 177.08 34 176.867 34H170.435C170.094 34 169.87 33.84 169.763 33.52L168.739 30.48H161.283L160.291 33.52C160.206 33.84 159.982 34 159.619 34H153.315ZM163.107 24.976H166.915L164.995 19.216L163.107 24.976ZM180.265 34C179.881 34 179.689 33.808 179.689 33.424V11.088C179.689 10.704 179.881 10.512 180.265 10.512H186.665C186.963 10.512 187.187 10.64 187.337 10.896L193.513 21.264L199.497 10.896C199.667 10.64 199.891 10.512 200.169 10.512H206.441C206.825 10.512 207.017 10.704 207.017 11.088V33.424C207.017 33.808 206.825 34 206.441 34H200.617C200.233 34 200.041 33.808 200.041 33.424V22.032L195.817 29.136C195.667 29.392 195.443 29.52 195.145 29.52H191.561C191.262 29.52 191.038 29.392 190.889 29.136L186.665 22.352V33.424C186.665 33.808 186.473 34 186.089 34H180.265ZM211.702 34C211.318 34 211.126 33.808 211.126 33.424V11.088C211.126 10.704 211.318 10.512 211.702 10.512H220.118C223.51 10.512 226.081 11.248 227.83 12.72C229.579 14.192 230.454 16.432 230.454 19.44C230.454 22.4267 229.579 24.6667 227.83 26.16C226.081 27.632 223.51 28.368 220.118 28.368H218.262V33.424C218.262 33.808 218.07 34 217.686 34H211.702ZM219.99 16.272H218.262V22.608H219.99C220.886 22.608 221.622 22.384 222.198 21.936C222.795 21.488 223.094 20.656 223.094 19.44C223.094 18.224 222.795 17.392 222.198 16.944C221.622 16.496 220.886 16.272 219.99 16.272Z" fill="#1B1B1B"/>
<path d="M242.6 44C242.2 44 242 43.7972 242 43.3915V38.9915C242 38.5858 242.2 38.383 242.6 38.383H247.908V5.61702H242.6C242.2 5.61702 242 5.41418 242 5.00851V0.608514C242 0.20284 242.2 0 242.6 0H253.4C253.8 0 254 0.20284 254 0.608514V43.3915C254 43.7972 253.8 44 253.4 44H242.6Z" fill="black"/>
<path d="M0.600001 44C0.200001 44 0 43.7972 0 43.3915V0.608514C0 0.20284 0.200001 0 0.600001 0H11.4C11.8 0 12 0.20284 12 0.608514V5.00851C12 5.41418 11.8 5.61702 11.4 5.61702H6.09231V38.383H11.4C11.8 38.383 12 38.5858 12 38.9915V43.3915C12 43.7972 11.8 44 11.4 44H0.600001Z" fill="black"/>
</svg>
