<svg width="320" height="56" viewBox="0 0 320 56" fill="none" xmlns="http://www.w3.org/2000/svg">
<rect x="2" y="2" width="316" height="52" rx="10" stroke="black" stroke-width="4"/>
<path d="M157.222 26.28H159.762C159.962 26.28 160.042 26.38 160.042 26.56V28.3C160.042 28.46 159.962 28.56 159.762 28.56H157.222V37.44C157.222 37.6 157.142 37.68 156.942 37.68H154.902C154.742 37.68 154.662 37.6 154.662 37.44V20.36C154.662 20.2 154.742 20.1 154.902 20.1H156.942C157.142 20.1 157.222 20.2 157.222 20.36V26.28ZM153.122 30.92L153.402 32.6C153.422 32.76 153.382 32.8 153.182 32.86C151.422 33.24 149.302 33.44 146.902 33.44H143.842C143.662 33.44 143.582 33.36 143.582 33.2V22.14C143.582 21.98 143.662 21.88 143.842 21.88H152.142C152.322 21.88 152.402 21.98 152.402 22.14V23.84C152.402 24 152.322 24.1 152.142 24.1H146.122V31.24H147.282C148.822 31.24 151.042 31.06 152.802 30.68C152.962 30.64 153.082 30.72 153.122 30.92ZM168.818 27.36C164.818 27.36 162.978 25.76 162.978 23.82C162.978 21.88 164.818 20.32 168.818 20.32C172.838 20.32 174.658 21.88 174.658 23.82C174.658 25.76 172.838 27.36 168.818 27.36ZM168.818 25.28C171.318 25.28 172.118 24.62 172.118 23.82C172.118 23.02 171.318 22.36 168.818 22.36C166.338 22.36 165.518 23.02 165.518 23.82C165.518 24.62 166.338 25.28 168.818 25.28ZM177.018 30.32H160.618C160.458 30.32 160.378 30.22 160.378 30.06V28.46C160.378 28.3 160.458 28.18 160.618 28.18H177.018C177.198 28.18 177.278 28.3 177.278 28.46V30.06C177.278 30.22 177.198 30.32 177.018 30.32ZM174.598 37.78H163.038C162.878 37.78 162.798 37.68 162.798 37.54V31.78C162.798 31.62 162.878 31.52 163.038 31.52H174.598C174.778 31.52 174.858 31.62 174.858 31.78V37.54C174.858 37.68 174.778 37.78 174.598 37.78ZM165.318 33.62V35.68H172.318V33.62H165.318Z" fill="#1B1B1B"/>
</svg>
